<?xml version="1.0" standalone="no"?>
<!DOCTYPE svg PUBLIC "-//W3C//DTD SVG 20010904//EN"
 "http://www.w3.org/TR/2001/REC-SVG-20010904/DTD/svg10.dtd">
<svg version="1.0" xmlns="http://www.w3.org/2000/svg"
 width="388.000000pt" height="216.000000pt" viewBox="0 0 388.000000 216.000000"
 preserveAspectRatio="xMidYMid meet">
<metadata>
Created by potrace 1.16, written by Peter Selinger 2001-2019
</metadata>
<g transform="translate(0.000000,216.000000) scale(0.100000,-0.100000)"
fill="#020202s" stroke="none">
<path d="M723 1507 c-264 -398 -431 -641 -465 -675 -61 -62 -129 -100 -194
-109 -36 -5 -48 -11 -55 -30 -5 -13 -9 -29 -9 -34 0 -5 105 -9 260 -9 l260 0
10 26 c15 39 13 44 -25 44 -50 0 -104 25 -114 52 -12 31 1 60 86 193 l70 110
223 3 223 2 -8 -102 c-8 -126 -21 -191 -43 -218 -19 -23 -75 -39 -138 -40 -38
0 -41 -3 -51 -35 l-11 -35 307 0 308 0 10 34 10 33 -59 6 c-69 6 -105 26 -115
65 -3 15 12 317 36 672 23 355 41 651 41 658 0 8 -21 12 -72 12 l-73 -1 -412
-622z m297 -14 c-12 -175 -23 -319 -24 -321 -2 -1 -88 -1 -192 0 l-190 3 210
323 c115 177 211 320 213 318 3 -2 -5 -147 -17 -323z"/>
<path d="M2656 1899 c-28 -362 -84 -902 -101 -977 -18 -80 -58 -143 -106 -168
-18 -9 -59 -19 -91 -22 -49 -4 -58 -8 -52 -21 4 -9 9 -26 11 -38 l5 -23 325 0
c317 0 323 0 313 19 -5 11 -10 29 -10 40 0 19 -6 21 -62 21 -152 2 -217 67
-218 220 0 41 3 92 6 113 l7 37 226 0 226 0 78 -135 c116 -201 115 -235 -10
-235 -60 0 -63 -1 -53 -19 5 -11 10 -29 10 -40 0 -21 3 -21 331 -21 312 0 331
1 324 18 -4 9 -10 27 -12 39 -5 20 -12 23 -57 23 -76 1 -128 28 -178 97 -24
33 -205 337 -403 676 l-360 616 -66 1 -65 0 -18 -221z m267 -435 c86 -149 157
-274 157 -278 0 -3 -90 -6 -200 -6 l-200 0 4 23 c3 12 15 139 26 282 12 143
24 266 26 274 6 19 1 27 187 -295z"/>
<path d="M3371 444 c-38 -49 -18 -88 59 -115 65 -23 70 -23 70 -4 0 8 -7 15
-16 15 -12 0 -14 5 -9 18 16 38 17 63 1 87 -23 35 -77 35 -105 -1z"/>
</g>
</svg>
