<?xml version="1.0" standalone="no"?>
<!DOCTYPE svg PUBLIC "-//W3C//DTD SVG 20010904//EN"
 "http://www.w3.org/TR/2001/REC-SVG-20010904/DTD/svg10.dtd">
<svg version="1.0" xmlns="http://www.w3.org/2000/svg"
 width="388.000000pt" height="216.000000pt" viewBox="0 0 388.000000 216.000000"
 preserveAspectRatio="xMidYMid meet">

<g transform="translate(0.000000,216.000000) scale(0.100000,-0.100000)"
fill="#da2c38" stroke="none">
<path d="M726 1495 c-257 -386 -434 -644 -465 -675 -60 -60 -139 -100 -197
-100 -40 0 -53 -13 -54 -52 0 -5 114 -8 253 -8 l253 0 11 30 11 30 -53 0 c-38
0 -60 6 -79 21 -45 35 -36 69 56 217 l83 132 228 0 227 0 0 -27 c-1 -57 -20
-226 -30 -264 -15 -55 -56 -79 -137 -79 -59 0 -61 -1 -72 -30 l-10 -30 300 0
299 0 10 26 c6 14 10 27 10 30 0 2 -24 4 -52 4 -29 0 -64 6 -78 13 -56 28 -56
14 -11 696 23 344 41 641 41 659 l0 32 -65 0 -65 0 -414 -625z m304 19 c-12
-181 -23 -335 -25 -341 -3 -10 -52 -13 -198 -13 -107 0 -196 3 -199 6 -3 3 93
158 215 345 121 187 222 338 224 336 2 -3 -6 -152 -17 -333z"/>
<path d="M2680 2100 c0 -71 -82 -950 -101 -1080 -18 -133 -39 -189 -83 -236
-32 -32 -53 -44 -94 -53 -29 -6 -62 -11 -72 -11 -17 0 -18 -4 -9 -30 l11 -30
310 0 310 0 -6 23 c-3 12 -6 25 -6 28 0 3 -34 9 -75 12 -85 8 -121 23 -158 67
-44 52 -55 121 -41 259 l7 61 235 -2 234 -3 55 -95 c114 -196 131 -243 98
-270 -8 -7 -43 -15 -79 -17 l-63 -6 11 -28 10 -29 316 0 317 0 -5 29 c-4 27
-7 29 -68 34 -77 7 -111 24 -155 76 -29 33 -256 415 -694 1166 l-87 150 -59 0
c-46 0 -59 -3 -59 -15z m242 -618 l177 -307 -206 -3 c-113 -1 -208 0 -211 3
-3 3 4 124 16 268 27 307 33 360 40 352 4 -3 86 -144 184 -313z"/>
<path d="M1379 528 c0 -2 -2 -16 -3 -31 -2 -25 0 -27 11 -11 15 21 17 44 3 44
-5 0 -10 -1 -11 -2z"/>
<path d="M3700 510 c-6 -11 -7 -20 -3 -20 5 0 14 9 21 20 7 11 8 20 2 20 -5 0
-14 -9 -20 -20z"/>
<path d="M432 408 c-11 -29 -18 -55 -15 -58 3 -3 8 1 10 8 3 6 17 12 33 12 16
0 30 -6 33 -12 2 -7 7 -10 11 -7 9 9 -26 101 -41 106 -6 2 -20 -19 -31 -49z
m42 10 c9 -35 8 -38 -15 -38 -15 0 -19 4 -15 16 3 9 6 22 6 30 0 22 17 16 24
-8z"/>
<path d="M548 453 c19 -4 22 -11 22 -54 0 -27 5 -49 10 -49 6 0 10 22 10 49 0
43 3 50 23 54 12 2 -3 4 -33 4 -30 0 -45 -2 -32 -4z"/>
<path d="M660 405 l0 -55 38 1 c30 2 32 3 10 6 -35 5 -39 40 -5 46 l22 4 -22
2 c-35 2 -31 39 5 44 22 3 20 4 -10 6 l-38 1 0 -55z"/>
<path d="M770 405 l0 -55 38 1 c30 2 32 3 10 6 -26 4 -28 8 -28 54 0 27 -4 49
-10 49 -5 0 -10 -25 -10 -55z"/>
<path d="M883 405 c0 -33 2 -45 4 -27 2 18 2 45 0 60 -2 15 -4 0 -4 -33z"/>
<path d="M940 405 l0 -55 38 1 c30 2 32 3 10 6 -35 5 -39 40 -5 46 l22 4 -22
2 c-35 2 -31 39 5 44 22 3 20 4 -10 6 l-38 1 0 -55z"/>
<path d="M1050 406 c0 -31 5 -56 10 -56 6 0 10 9 10 20 0 11 4 20 10 20 5 0
14 -9 20 -20 6 -11 16 -20 22 -20 6 0 4 10 -5 24 -15 22 -15 25 -1 30 9 4 14
15 12 28 -2 19 -10 24 -40 26 l-38 3 0 -55z m59 30 c10 -12 8 -17 -7 -25 -22
-12 -32 -6 -32 21 0 21 23 24 39 4z"/>
<path d="M1240 405 l0 -55 33 0 c41 0 57 15 57 55 0 40 -16 55 -57 55 l-33 0
0 -55z m64 29 c31 -31 13 -74 -31 -74 -20 0 -23 5 -23 38 0 55 22 69 54 36z"/>
<path d="M1443 405 c0 -33 2 -45 4 -27 2 18 2 45 0 60 -2 15 -4 0 -4 -33z"/>
<path d="M1500 405 c0 -64 17 -75 22 -13 l3 42 29 -42 c40 -59 56 -55 56 13 0
65 -17 74 -22 13 l-3 -43 -29 43 c-40 59 -56 55 -56 -13z"/>
<path d="M1658 453 c19 -4 22 -11 22 -54 0 -27 5 -49 10 -49 6 0 10 22 10 49
0 43 3 50 23 54 12 2 -3 4 -33 4 -30 0 -45 -2 -32 -4z"/>
<path d="M1770 405 l0 -55 38 2 37 1 -33 4 c-40 5 -41 33 -2 44 25 7 25 7 -3
8 -36 1 -34 32 3 42 23 6 22 7 -7 8 l-33 1 0 -55z"/>
<path d="M1880 405 l0 -55 38 1 c30 2 32 3 10 6 -26 4 -28 8 -28 54 0 27 -4
49 -10 49 -5 0 -10 -25 -10 -55z"/>
<path d="M1980 405 l0 -55 38 1 c30 2 32 3 10 6 -26 4 -28 8 -28 54 0 27 -4
49 -10 49 -5 0 -10 -25 -10 -55z"/>
<path d="M2080 405 c0 -30 5 -55 10 -55 6 0 10 25 10 55 0 30 -4 55 -10 55 -5
0 -10 -25 -10 -55z"/>
<path d="M2155 436 c-31 -47 7 -105 61 -92 17 5 24 13 24 31 0 14 -4 25 -10
25 -5 0 -10 -9 -10 -20 0 -13 -7 -20 -18 -20 -24 0 -42 19 -42 46 0 26 16 40
50 47 21 4 20 4 -7 6 -24 1 -37 -5 -48 -23z"/>
<path d="M2290 405 l0 -55 33 1 c30 2 30 2 5 6 -19 3 -28 10 -28 23 0 13 9 20
28 23 l27 4 -27 2 c-21 1 -28 6 -28 20 0 14 8 21 28 24 25 4 25 4 -5 6 l-33 1
0 -55z"/>
<path d="M2402 403 l1 -58 6 45 6 44 33 -42 c19 -23 38 -42 43 -42 5 0 8 26 7
58 -1 49 -2 51 -5 15 -2 -24 -7 -43 -11 -43 -4 0 -20 18 -35 40 -16 22 -33 40
-38 40 -5 0 -8 -26 -7 -57z"/>
<path d="M2562 448 c-13 -13 -16 -67 -4 -84 11 -17 45 -25 62 -14 12 8 10 10
-10 10 -32 0 -50 17 -50 46 0 26 16 40 50 47 22 4 22 4 -5 6 -17 0 -36 -4 -43
-11z"/>
<path d="M2670 405 l0 -55 38 1 c30 2 32 3 10 6 -38 6 -38 40 0 46 l27 4 -27
2 c-21 1 -28 6 -28 20 0 14 8 21 28 24 22 3 20 4 -10 6 l-38 1 0 -55z"/>
<path d="M2852 408 c-11 -29 -18 -55 -15 -58 3 -3 8 1 10 8 3 6 17 12 33 12
16 0 30 -6 33 -12 2 -7 7 -10 11 -7 9 9 -26 101 -41 106 -6 2 -20 -19 -31 -49z
m42 10 c9 -35 8 -38 -15 -38 -15 0 -19 4 -15 16 3 9 6 22 6 30 0 22 17 16 24
-8z"/>
<path d="M2971 403 c0 -38 3 -51 8 -38 4 11 19 22 32 25 19 5 24 12 24 35 0
26 -4 30 -32 33 l-33 3 1 -58z m54 22 c0 -13 -8 -21 -22 -23 -17 -3 -23 2 -23
16 0 10 3 22 7 26 13 13 38 1 38 -19z"/>
<path d="M3091 403 c1 -32 4 -48 6 -36 2 13 13 23 25 25 51 7 49 68 -2 68
l-30 0 1 -57z m46 36 c16 -16 5 -39 -18 -39 -14 0 -19 7 -19 25 0 26 18 33 37
14z"/>
<path d="M3200 405 l0 -55 38 1 c30 2 32 3 10 6 -26 4 -28 8 -28 54 0 27 -4
49 -10 49 -5 0 -10 -25 -10 -55z"/>
<path d="M3300 405 c0 -30 5 -55 10 -55 6 0 10 25 10 55 0 30 -4 55 -10 55 -5
0 -10 -25 -10 -55z"/>
<path d="M3377 442 c-36 -40 -11 -95 43 -95 20 0 38 7 46 18 17 23 18 67 2 83
-18 18 -73 14 -91 -6z m83 -17 c11 -30 4 -52 -21 -66 -31 -16 -59 6 -59 45 0
40 5 46 42 46 21 0 31 -6 38 -25z"/>
<path d="M3522 409 c7 -69 38 -89 78 -49 13 13 20 33 20 60 0 56 -18 50 -22
-7 -3 -44 -5 -48 -28 -48 -23 0 -25 4 -28 48 -2 26 -8 47 -14 47 -7 0 -9 -18
-6 -51z"/>
<path d="M3670 405 l0 -55 38 2 37 1 -33 4 c-40 5 -41 33 -2 44 25 7 25 7 -3
8 -36 1 -34 32 3 42 23 6 22 7 -7 8 l-33 1 0 -55z"/>
<path d="M3780 405 l0 -55 38 1 c30 2 32 3 10 6 -35 5 -39 40 -5 46 l22 4 -22
2 c-35 2 -31 39 5 44 22 3 20 4 -10 6 l-38 1 0 -55z"/>
<path d="M3450 330 c8 -5 22 -10 30 -10 13 0 13 1 0 10 -8 5 -22 10 -30 10
-13 0 -13 -1 0 -10z"/>
<path d="M3301 177 c-36 -18 -47 -41 -35 -74 8 -23 16 -29 47 -31 35 -3 37 -2
36 25 -2 23 -2 24 -6 6 -9 -49 -67 -17 -61 34 2 24 8 29 36 31 18 2 30 8 27
13 -8 12 -15 11 -44 -4z"/>
<path d="M3692 174 c-15 -10 -22 -25 -22 -48 0 -40 16 -56 55 -55 l30 1 -30 7
c-58 12 -57 91 2 91 14 0 21 4 18 10 -9 14 -27 12 -53 -6z"/>
<path d="M1737 147 c-25 -58 -29 -77 -18 -77 6 0 11 5 11 10 0 15 58 12 63 -2
2 -7 7 -10 11 -7 9 8 -28 102 -42 107 -6 2 -18 -12 -25 -31z m36 -17 c4 -15 0
-20 -15 -20 -14 0 -18 5 -14 16 3 9 6 20 6 25 0 17 17 1 23 -21z"/>
<path d="M1851 123 c1 -32 4 -48 6 -36 2 13 13 23 25 25 51 7 49 68 -2 68
l-30 0 1 -57z m52 33 c6 -16 -11 -36 -30 -36 -7 0 -13 11 -13 25 0 18 5 25 19
25 10 0 21 -6 24 -14z"/>
<path d="M1960 125 c0 -30 5 -55 10 -55 6 0 10 9 10 19 0 12 9 21 24 25 51 13
42 66 -10 66 l-34 0 0 -55z m55 20 c0 -11 -8 -21 -17 -23 -14 -3 -18 3 -18 23
0 20 4 26 18 23 9 -2 17 -12 17 -23z"/>
<path d="M2082 128 l-2 -58 38 1 c36 1 36 2 7 8 -27 6 -31 10 -36 56 l-6 50
-1 -57z"/>
<path d="M2183 125 c0 -33 2 -45 4 -27 2 18 2 45 0 60 -2 15 -4 0 -4 -33z"/>
<path d="M2240 125 l0 -55 38 1 c30 2 32 3 10 6 -19 3 -28 10 -28 23 0 13 9
20 28 23 l27 4 -27 2 c-21 1 -28 6 -28 20 0 14 8 21 28 24 22 3 20 4 -10 6
l-38 1 0 -55z"/>
<path d="M2360 125 c0 -54 0 -55 29 -55 37 0 61 23 61 59 0 36 -17 51 -57 51
l-33 0 0 -55z m70 26 c5 -11 10 -24 10 -30 0 -16 -30 -41 -51 -41 -16 0 -19 7
-19 45 0 41 2 45 25 45 14 0 29 -8 35 -19z"/>
<path d="M2563 125 c0 -33 2 -45 4 -27 2 18 2 45 0 60 -2 15 -4 0 -4 -33z"/>
<path d="M2620 125 c0 -65 17 -74 22 -12 l3 42 30 -42 c41 -59 55 -56 55 12 0
64 -17 75 -22 13 l-3 -42 -29 42 c-40 59 -56 55 -56 -13z"/>
<path d="M2778 173 c19 -4 22 -11 22 -54 0 -27 5 -49 10 -49 6 0 10 22 10 49
0 43 3 50 23 54 12 2 -3 4 -33 4 -30 0 -45 -2 -32 -4z"/>
<path d="M2890 125 l0 -55 38 1 c36 1 36 2 7 8 -41 8 -47 41 -8 42 28 1 28 1
3 8 -36 10 -38 39 -3 44 27 4 27 4 -4 6 l-33 1 0 -55z"/>
<path d="M3000 125 l0 -55 38 1 c30 2 32 3 10 6 -26 4 -28 8 -28 54 0 27 -4
49 -10 49 -5 0 -10 -25 -10 -55z"/>
<path d="M3100 125 l0 -55 38 1 c30 2 32 3 10 6 -26 4 -28 8 -28 54 0 27 -4
49 -10 49 -5 0 -10 -25 -10 -55z"/>
<path d="M3200 125 c0 -30 5 -55 10 -55 6 0 10 25 10 55 0 30 -4 55 -10 55 -5
0 -10 -25 -10 -55z"/>
<path d="M3410 125 l0 -55 33 1 c30 2 30 2 5 6 -19 3 -28 10 -28 23 0 13 9 20
28 23 l27 4 -27 2 c-21 1 -28 6 -28 20 0 14 8 21 28 24 25 4 25 4 -5 6 l-33 1
0 -55z"/>
<path d="M3522 123 l1 -58 6 49 6 49 33 -47 c18 -25 37 -46 43 -46 5 0 8 26 7
58 l-1 57 -6 -45 -6 -44 -33 42 c-19 23 -38 42 -43 42 -5 0 -8 -26 -7 -57z"/>
<path d="M3790 125 l0 -55 38 1 c30 2 32 3 10 6 -19 3 -28 10 -28 23 0 13 9
20 28 23 l27 4 -27 2 c-21 1 -28 6 -28 20 0 14 8 21 28 24 22 3 20 4 -10 6
l-38 1 0 -55z"/>
</g>
</svg>
