<?xml version="1.0" standalone="no"?>
<!DOCTYPE svg PUBLIC "-//W3C//DTD SVG 20010904//EN"
 "http://www.w3.org/TR/2001/REC-SVG-20010904/DTD/svg10.dtd">
<svg version="1.0" xmlns="http://www.w3.org/2000/svg"
 width="1203.000000pt" height="395.000000pt" viewBox="0 0 1203.000000 395.000000"
 preserveAspectRatio="xMidYMid meet">

<g transform="translate(0.000000,395.000000) scale(0.100000,-0.100000)"
fill="#000000" stroke="none">
<path d="M0 3825 c0 -77 4 -125 10 -125 6 0 10 8 10 18 0 30 44 75 66 68 31
-11 74 -75 74 -111 0 -38 -39 -85 -70 -85 -24 0 -70 42 -70 64 0 8 -4 18 -10
21 -7 4 -10 -62 -10 -189 0 -189 1 -196 20 -196 15 0 20 7 20 24 0 33 16 41
32 16 7 -11 21 -20 30 -20 10 0 46 -16 81 -35 35 -19 72 -35 81 -35 10 0 33
-16 50 -35 26 -28 41 -36 80 -40 65 -6 74 -16 73 -76 -1 -40 4 -55 18 -65 16
-12 17 -18 8 -33 -13 -21 -20 -92 -10 -108 14 -22 -4 -43 -38 -43 -39 0 -51
-12 -30 -30 18 -15 112 18 163 57 28 21 32 30 30 61 -3 35 -1 36 34 42 25 5
50 20 76 46 21 21 51 47 65 57 15 10 30 30 33 44 4 14 14 35 23 46 46 56 85
97 93 97 5 0 25 7 45 15 29 12 33 18 24 29 -10 12 -8 19 7 34 11 11 18 23 14
26 -3 3 0 6 6 6 7 0 12 -4 12 -9 0 -10 75 -24 130 -25 42 -1 137 28 160 49 21
19 145 75 165 75 9 0 29 7 44 15 16 8 39 16 52 19 13 2 49 16 79 30 35 16 58
22 65 16 7 -6 16 -5 23 2 9 9 12 9 12 0 0 -7 9 -12 21 -12 11 0 32 -9 46 -20
14 -11 29 -17 34 -14 5 3 9 0 9 -5 0 -6 7 -11 15 -11 9 0 48 -12 88 -26 39
-14 77 -27 84 -28 7 -1 16 -5 19 -9 4 -4 17 -7 29 -7 13 0 56 -11 96 -24 41
-13 111 -29 157 -36 45 -7 85 -16 88 -21 3 -5 12 -9 21 -9 8 0 27 -9 43 -20
15 -11 30 -17 33 -14 3 3 16 0 29 -8 15 -8 58 -13 121 -13 86 0 100 -2 113
-19 15 -21 10 -51 -12 -77 -21 -24 -17 -33 26 -59 22 -14 40 -30 40 -37 0 -7
6 -16 13 -20 18 -12 68 -92 70 -112 1 -14 6 -16 27 -10 101 31 142 39 153 32
6 -4 19 -6 29 -5 9 2 19 -1 22 -7 4 -6 18 -3 36 7 28 16 30 16 58 -5 28 -21
59 -30 127 -37 17 -1 42 -9 55 -16 14 -8 33 -14 43 -15 10 -1 22 -6 28 -12 14
-14 61 -4 52 11 -4 6 1 5 10 -3 20 -16 47 -8 47 13 0 20 17 29 26 15 5 -8 3
-9 -6 -4 -8 5 -11 4 -6 -3 4 -6 14 -8 23 -5 10 4 12 8 6 10 -7 3 -9 11 -6 20
4 10 2 14 -5 9 -14 -8 3 53 19 68 8 8 8 5 0 -11 -13 -26 0 -31 21 -9 11 11 15
9 25 -13 9 -19 12 -21 10 -6 -2 16 4 20 25 19 15 0 25 3 22 7 -2 4 2 14 11 22
13 13 13 16 0 21 -8 3 -15 1 -15 -5 0 -6 -6 -7 -12 -3 -10 6 -10 4 0 -8 10
-13 10 -17 -3 -22 -17 -6 -22 29 -5 39 6 3 10 11 10 16 0 6 -5 7 -12 3 -7 -4
-8 -3 -4 5 4 6 3 17 -2 24 -41 50 11 84 123 82 39 -1 90 5 114 12 46 13 84 11
105 -6 7 -6 16 -8 19 -4 4 3 7 2 7 -4 0 -6 9 -13 21 -16 15 -4 19 -2 15 8 -6
16 4 25 38 31 19 3 24 0 21 -13 -1 -10 2 -27 8 -38 10 -20 10 -20 -11 -1 -12
10 -19 22 -17 27 3 4 1 10 -4 13 -10 7 -9 -20 2 -30 10 -10 9 -26 -1 -20 -5 3
-22 -9 -38 -26 -16 -18 -21 -26 -12 -19 12 9 18 10 18 2 0 -15 27 -14 33 2 3
6 6 7 6 1 1 -17 -46 -57 -54 -45 -3 6 -1 11 4 11 6 0 11 5 11 11 0 8 -4 9 -13
0 -8 -6 -17 -8 -20 -4 -4 3 -7 2 -7 -2 0 -5 12 -22 27 -38 16 -17 23 -27 16
-23 -6 3 -16 -2 -22 -11 -6 -10 -11 -13 -11 -7 0 5 5 15 11 21 8 8 8 13 0 17
-6 4 -11 3 -11 -3 0 -5 -9 -13 -20 -16 -11 -4 -20 -12 -19 -18 4 -20 -20 -67
-33 -67 -10 0 -10 -2 0 -9 7 -4 20 -20 27 -35 8 -15 10 -24 5 -21 -6 4 -10 1
-10 -4 0 -6 5 -11 10 -11 19 0 10 -16 -10 -17 -12 -1 -24 7 -31 20 -9 21 -9
21 5 3 14 -17 15 -16 14 13 -1 31 -28 46 -28 15 0 -8 -4 -13 -10 -9 -5 3 -3
-7 5 -22 8 -15 15 -35 15 -43 0 -13 1 -13 11 0 9 13 10 13 6 0 -2 -8 3 -20 12
-27 15 -11 15 -12 0 -13 -9 0 -21 10 -28 23 -7 12 -21 23 -32 23 -16 0 -15 -3
9 -22 l27 -22 -25 5 c-24 4 -26 2 -27 -38 -1 -23 -9 -49 -18 -58 -11 -12 -15
-12 -15 -2 0 11 -3 11 -15 1 -8 -7 -15 -9 -15 -6 0 4 -10 2 -21 -5 -15 -8 -24
-8 -28 0 -4 6 -12 2 -20 -10 -7 -12 -8 -18 -2 -15 5 4 16 -3 24 -14 7 -11 17
-17 20 -13 4 3 7 1 7 -5 0 -16 -19 -15 -26 1 -5 15 -34 19 -34 5 0 -4 4 -8 10
-8 5 0 7 -7 4 -15 -4 -8 -12 -15 -19 -15 -8 0 -17 -4 -20 -10 -4 -6 1 -7 11
-3 12 4 15 3 10 -5 -7 -12 15 -17 64 -13 20 1 22 0 10 -10 -12 -8 -9 -9 13 -5
15 4 27 2 27 -4 0 -5 -4 -10 -10 -10 -5 0 -10 -10 -10 -22 0 -22 1 -22 21 4
20 25 23 26 45 12 14 -10 21 -21 17 -31 -4 -9 -2 -14 3 -10 13 7 41 -10 31
-19 -4 -4 -23 0 -43 9 -33 16 -60 15 -49 -2 2 -5 -8 -6 -23 -4 -15 2 -42 4
-59 4 -18 1 -33 5 -33 10 0 5 -7 9 -15 9 -8 0 -15 -4 -15 -10 0 -11 -78 -12
-125 -1 -21 5 -38 2 -56 -11 -24 -16 -28 -16 -39 -3 -14 17 -60 21 -60 5 0 -5
-7 -10 -15 -10 -8 0 -12 6 -9 14 3 7 -3 16 -13 20 -10 3 -25 9 -33 12 -9 3 -7
-1 4 -10 18 -14 18 -17 4 -33 -8 -10 -13 -24 -11 -30 7 -19 -42 -16 -61 3 -9
8 -19 13 -24 11 -12 -8 -14 -117 -1 -117 6 0 17 -6 24 -14 21 -20 91 -6 87 18
-2 10 1 15 6 12 15 -9 42 4 42 20 0 19 7 18 45 -6 22 -14 48 -19 85 -19 33 1
56 -3 58 -10 2 -6 19 -11 37 -11 19 0 37 -4 40 -10 10 -16 35 -12 29 5 -5 11
1 15 19 15 14 0 28 -4 31 -9 4 -5 26 -19 51 -31 25 -12 45 -26 45 -31 0 -5 11
-9 25 -9 33 0 75 -28 69 -44 -9 -23 29 -41 106 -52 19 -3 58 -13 85 -24 77
-29 144 -32 181 -9 33 20 45 21 130 17 47 -3 55 -7 96 -51 25 -26 52 -47 61
-47 8 0 28 -10 44 -23 15 -13 40 -31 56 -40 15 -10 27 -23 27 -31 0 -18 -33
-46 -53 -46 -9 0 -17 -2 -17 -5 0 -10 43 -54 50 -50 19 12 209 15 253 4 45
-11 50 -10 73 12 13 12 24 28 24 36 0 17 73 49 135 59 73 10 189 12 196 3 3
-5 54 -10 114 -11 89 -2 113 -6 127 -20 10 -10 32 -18 49 -18 17 0 40 -5 52
-12 29 -16 145 -47 178 -48 15 0 29 -7 33 -15 3 -8 12 -15 20 -15 7 0 16 -7
20 -15 3 -8 14 -15 25 -15 10 0 21 -6 24 -14 6 -15 70 -16 114 -2 24 8 72 -9
87 -30 8 -10 34 -16 78 -19 37 -3 71 -6 75 -7 4 -1 46 2 93 6 66 6 90 13 108
30 19 17 36 21 90 21 145 1 182 5 182 18 1 18 58 79 105 110 51 35 109 36 156
4 19 -13 33 -29 32 -34 -3 -12 42 -27 70 -24 9 1 30 -7 46 -18 16 -12 37 -22
47 -24 11 -2 28 -8 39 -13 11 -6 38 -11 60 -13 77 -5 118 -22 160 -65 22 -24
68 -72 102 -108 52 -55 66 -65 98 -66 20 -1 40 -4 44 -7 5 -2 33 -7 63 -10 30
-3 66 -8 79 -12 13 -4 52 -8 86 -9 34 -1 76 -7 95 -12 45 -15 75 -16 126 -7
25 5 42 13 42 21 0 8 9 14 19 14 15 0 22 11 30 50 6 28 11 57 11 63 0 22 77
99 117 117 21 10 62 38 90 63 29 25 66 48 83 52 18 4 40 21 59 47 27 37 70 68
93 68 5 0 33 15 61 34 65 43 169 58 230 33 20 -9 37 -13 37 -9 0 4 5 -1 10
-10 9 -14 125 -78 143 -78 4 0 30 -16 57 -35 27 -19 54 -35 58 -35 15 0 92
-71 92 -85 0 -7 7 -18 15 -25 8 -7 12 -16 9 -21 -3 -5 0 -9 7 -9 7 0 9 -3 6
-7 -13 -12 16 -33 45 -33 16 0 42 7 57 15 16 8 31 12 34 9 6 -6 87 87 87 100
0 5 10 30 22 54 l21 45 -21 16 c-22 16 -26 37 -23 125 1 42 6 53 37 82 l37 33
-13 46 c-12 42 -11 47 6 60 10 7 31 16 46 19 20 4 34 18 53 55 29 58 77 95
150 116 59 18 66 22 83 53 12 21 11 27 -4 43 -16 18 -16 21 2 57 27 53 62 82
88 72 12 -4 22 -12 22 -19 1 -6 3 -14 4 -18 1 -5 2 -11 2 -14 -1 -3 11 -12 26
-19 15 -7 39 -19 55 -27 15 -8 35 -12 45 -9 18 6 62 84 62 109 0 20 52 66 80
71 15 2 42 -6 66 -19 33 -20 50 -23 100 -19 78 7 83 7 124 -1 32 -6 37 -4 54
27 32 54 43 58 216 61 153 3 184 -19 185 -133 1 -44 6 -85 12 -91 5 -5 23 -11
39 -13 16 -2 33 -4 38 -5 6 0 5 -6 -1 -12 -8 -8 -8 -20 -3 -34 7 -19 6 -23 -8
-21 -9 2 -21 -1 -27 -6 -5 -5 -19 -16 -31 -26 -11 -9 -26 -27 -33 -40 -11 -20
-10 -27 5 -43 16 -18 15 -19 -10 -28 -14 -6 -26 -16 -26 -23 0 -9 -3 -8 -10 2
-10 15 -12 13 -14 -18 0 -11 -7 -26 -13 -34 -7 -8 -9 -19 -5 -23 4 -5 1 -5 -5
-1 -7 4 -13 2 -13 -4 0 -6 -5 -8 -10 -5 -6 3 -10 -1 -10 -9 0 -21 -30 -35 -55
-26 -11 4 -37 1 -58 -6 -40 -14 -39 -14 -63 -14 -8 0 -13 -4 -9 -9 3 -6 -4 -8
-15 -6 -11 2 -20 -1 -20 -6 0 -6 -4 -7 -10 -4 -5 3 -10 2 -10 -4 0 -5 -7 -16
-15 -24 -8 -8 -16 -21 -17 -28 -2 -7 -12 -23 -22 -36 -14 -16 -23 -20 -32 -12
-8 6 -14 7 -18 0 -4 -5 -15 -8 -26 -6 -11 2 -20 -1 -20 -6 0 -6 -5 -7 -10 -4
-13 8 -42 -14 -34 -26 3 -5 0 -8 -8 -7 -7 2 -12 -2 -11 -9 1 -6 -4 -14 -13
-17 -10 -4 -13 -2 -8 7 5 8 2 8 -9 -2 -9 -7 -14 -18 -10 -24 3 -6 1 -7 -5 -3
-7 4 -12 2 -12 -4 0 -8 -6 -7 -22 1 -18 10 -20 9 -14 -6 5 -15 4 -16 -8 -6 -8
7 -16 8 -18 2 -1 -5 -16 -11 -33 -14 -16 -3 -46 -12 -66 -21 -20 -8 -39 -12
-43 -9 -3 4 -6 1 -6 -5 0 -7 -5 -12 -11 -12 -6 0 -22 -14 -36 -30 -13 -17 -29
-27 -34 -24 -17 10 -185 -57 -201 -80 -3 -5 -13 -11 -22 -12 -27 -4 -116 -47
-116 -56 0 -5 -5 -6 -10 -3 -6 3 -10 1 -10 -5 0 -6 -4 -9 -9 -5 -5 3 -16 -1
-23 -9 -20 -19 -74 -46 -81 -40 -3 3 -16 0 -29 -7 -12 -7 -32 -14 -43 -14 -29
-3 -85 -26 -85 -35 0 -5 -21 -16 -47 -26 -27 -10 -56 -25 -67 -33 -28 -24 -53
-91 -35 -91 6 0 7 -4 4 -10 -3 -5 1 -10 9 -10 8 0 20 -8 25 -17 6 -10 11 -15
11 -11 0 4 14 -6 30 -24 17 -17 30 -28 30 -24 0 4 7 0 16 -8 9 -9 32 -16 55
-16 22 0 49 -5 60 -11 15 -7 24 -7 35 1 7 7 25 10 39 8 24 -5 25 -3 19 27 -9
50 3 72 59 110 29 19 61 41 73 50 11 8 40 17 64 20 23 2 50 11 59 19 21 19
115 56 143 56 11 0 35 9 53 20 20 12 47 19 66 18 19 -1 34 3 37 10 8 24 93 59
157 65 11 1 20 8 20 15 0 17 55 52 83 52 12 0 34 -7 47 -16 28 -18 55 -13 55
11 0 18 44 58 100 92 21 12 57 42 82 67 24 24 55 47 68 51 25 8 30 11 73 49
15 13 41 29 57 36 17 7 30 16 30 21 0 5 5 9 11 9 6 0 24 13 40 29 16 17 39 33
51 37 26 8 38 20 58 57 21 41 46 52 60 27 6 -12 8 -30 5 -40 -8 -26 -93 -111
-130 -130 -56 -29 -192 -163 -220 -217 -15 -28 -34 -58 -44 -67 -16 -14 -82
-46 -98 -47 -17 0 -59 -12 -68 -19 -5 -4 -27 -13 -47 -19 -46 -15 -68 -38 -44
-47 9 -3 16 -12 16 -20 0 -15 26 -9 50 12 10 9 20 10 30 4 23 -15 51 -12 64 6
8 10 31 17 64 18 28 2 58 9 67 16 10 8 29 10 54 6 42 -6 76 8 149 63 25 18 36
21 44 13 17 -17 24 -15 58 18 17 17 35 28 40 25 5 -3 11 -1 15 5 3 5 19 10 35
10 32 0 80 19 80 31 0 5 34 8 76 8 64 -1 79 2 98 20 12 12 31 21 42 21 11 0
34 13 52 29 l32 30 0 428 c0 404 -5 478 -26 440 -7 -10 -15 -12 -31 -6 -34 12
-28 36 17 65 l40 27 0 429 0 428 -24 -4 c-28 -5 -76 -34 -76 -46 0 -5 -18 -1
-40 7 -31 12 -40 21 -40 39 0 32 -34 51 -97 57 -31 3 -65 14 -83 27 -32 22
-134 45 -123 27 4 -6 -1 -8 -11 -4 -10 4 -26 7 -36 7 -13 0 -20 9 -22 27 -5
47 -33 53 -245 53 -135 0 -193 -3 -193 -11 0 -6 7 -9 15 -5 8 3 15 1 15 -4 0
-4 14 -11 30 -15 20 -4 30 -13 30 -25 0 -23 -19 -30 -47 -17 -16 7 -31 7 -48
-1 -32 -15 -45 -15 -25 -1 11 8 7 9 -18 4 -18 -4 -38 -3 -45 2 -7 5 -28 10
-47 11 -25 2 -42 11 -60 32 l-25 30 -370 0 -370 -1 24 -20 c13 -11 30 -18 37
-15 7 3 16 1 20 -5 10 -17 48 -27 61 -17 9 7 21 5 38 -6 29 -19 55 -21 55 -4
0 9 3 9 13 -1 10 -10 7 -16 -13 -29 -13 -10 -31 -25 -39 -34 -9 -10 -21 -18
-29 -18 -21 0 -113 -56 -104 -64 4 -4 2 -7 -3 -6 -28 6 -47 -1 -41 -15 3 -9 0
-15 -8 -15 -8 0 -17 -11 -20 -25 -7 -27 -26 -34 -26 -9 0 8 -5 12 -10 9 -6 -4
-8 -11 -5 -16 4 -5 -5 -9 -19 -9 -16 0 -30 -8 -37 -22 -7 -13 -14 -18 -16 -11
-3 8 -15 5 -39 -9 -19 -11 -34 -23 -34 -27 0 -4 -28 -16 -62 -26 -34 -10 -78
-29 -96 -42 -19 -13 -43 -23 -53 -23 -11 0 -20 -11 -25 -32 -4 -18 -7 -36 -6
-39 1 -4 -7 -9 -17 -12 -14 -3 -17 0 -13 15 3 11 -1 24 -9 29 -23 14 -30 10
-25 -15 6 -32 -17 -63 -52 -68 -36 -5 -40 20 -5 33 33 12 33 46 0 41 -27 -5
-40 19 -19 34 24 17 10 26 -48 32 -38 3 -56 0 -77 -14 -16 -11 -52 -26 -82
-34 -65 -18 -73 -33 -32 -55 28 -14 31 -14 31 0 0 10 11 15 33 16 23 1 26 3
10 6 -13 2 -23 11 -23 19 0 17 12 18 28 2 8 -8 15 -8 25 0 19 16 29 4 16 -20
-8 -14 -8 -23 0 -31 8 -8 0 -20 -25 -43 -20 -17 -35 -36 -33 -41 7 -17 71 6
76 27 3 10 15 20 27 22 11 2 20 10 18 17 -6 26 26 48 60 42 l33 -5 -30 -6
c-27 -5 -30 -9 -28 -42 2 -35 0 -37 -57 -64 -33 -16 -60 -35 -60 -43 0 -8 -3
-12 -6 -9 -5 6 -226 -104 -254 -127 -8 -6 -33 -22 -55 -35 l-40 -24 28 27 c15
15 31 27 34 27 3 0 21 11 39 25 18 14 37 25 43 25 17 0 29 33 20 55 -4 11 -8
14 -8 8 -1 -18 -31 -16 -31 2 0 8 5 14 11 13 6 -2 12 9 13 23 1 23 -1 25 -19
18 -11 -4 -41 -11 -67 -14 -31 -4 -53 -13 -61 -26 -10 -13 -20 -17 -33 -12
-25 9 -45 29 -37 37 4 3 1 6 -5 6 -7 0 -12 -4 -12 -9 0 -5 -10 -12 -22 -16
-24 -7 -21 -9 25 -19 30 -7 38 -40 11 -50 -10 -4 -13 -13 -9 -26 5 -15 0 -21
-20 -26 -20 -5 -23 -9 -15 -20 9 -10 2 -13 -37 -12 -26 0 -71 -2 -100 -5 -29
-4 -55 -2 -58 3 -3 5 -18 5 -38 -1 -43 -12 -47 -12 -47 6 0 18 -5 18 -31 4
-20 -10 -20 -10 -4 15 15 22 15 26 2 26 -8 0 -17 7 -21 15 -10 27 -23 16 -19
-17 3 -23 2 -29 -5 -19 -5 7 -14 11 -18 8 -5 -3 -18 1 -29 9 -10 8 -13 14 -7
14 7 0 12 6 12 14 0 9 -7 12 -20 9 -24 -6 -26 -26 -5 -43 20 -16 19 -30 -2
-45 -13 -10 -22 -10 -36 -1 -16 9 -23 6 -46 -21 -15 -18 -34 -33 -43 -33 -9 0
-18 -9 -21 -20 -3 -11 -1 -17 4 -14 5 3 12 -3 16 -13 16 -43 74 -56 118 -27
14 9 25 12 25 8 0 -5 6 2 13 16 9 18 21 25 41 25 21 0 31 6 37 24 9 22 11 22
32 8 12 -8 23 -20 23 -26 1 -6 2 -16 3 -21 1 -7 8 -7 22 0 16 9 26 8 44 -4 28
-18 61 -21 70 -6 9 15 58 13 53 -2 -3 -7 -13 -15 -23 -16 -12 -3 -15 0 -10 10
3 7 1 6 -7 -3 -7 -9 -19 -14 -26 -12 -8 3 -10 -1 -5 -14 6 -16 5 -16 -10 -4
-15 12 -17 11 -17 -3 0 -11 -9 -16 -30 -16 -39 0 -99 -25 -116 -48 -10 -13
-15 -14 -25 -5 -12 12 -62 -1 -114 -29 -14 -8 -20 -8 -23 1 -2 6 -8 11 -13 11
-4 0 -5 -7 -2 -17 4 -10 2 -14 -5 -9 -6 3 -13 2 -16 -3 -6 -9 -100 -26 -129
-23 -10 1 -16 -2 -13 -7 5 -7 -52 -29 -99 -37 -73 -13 -110 -24 -113 -33 -2
-6 -15 -11 -28 -11 -15 0 -24 -6 -24 -15 0 -12 -4 -13 -18 -6 -10 5 -36 7 -57
4 -22 -2 -52 -4 -68 -4 -15 1 -45 -8 -68 -19 -26 -14 -45 -18 -52 -12 -15 11
-47 12 -47 0 0 -4 5 -8 10 -8 6 0 10 -4 10 -10 0 -5 -7 -10 -15 -10 -8 0 -15
7 -15 15 0 11 -5 12 -26 5 -14 -6 -39 -10 -55 -10 -17 0 -32 -6 -35 -14 -3 -8
-12 -12 -20 -9 -15 6 -18 -6 -6 -22 10 -14 62 -18 62 -5 0 5 -6 10 -12 11 -7
0 0 5 16 10 37 10 40 8 22 -17 -12 -15 -27 -19 -81 -19 l-67 0 -3 -42 c-4 -46
0 -48 63 -43 14 1 22 -4 22 -13 0 -16 70 -77 89 -77 6 0 11 12 11 26 0 23 -2
25 -15 14 -9 -7 -18 -10 -22 -6 -3 3 -1 6 6 6 7 0 9 5 6 10 -3 6 -18 7 -33 4
-15 -4 -24 -3 -20 1 4 4 2 17 -3 28 -10 17 -9 19 10 14 11 -3 19 -1 18 3 -1 4
1 8 6 9 21 3 27 -1 27 -16 1 -17 1 -17 10 -1 6 9 24 19 40 23 17 4 30 13 30
21 0 16 16 19 25 4 9 -15 42 -12 59 6 10 9 24 13 36 9 11 -4 20 -2 20 4 0 6 7
11 15 11 9 0 12 -6 8 -17 -5 -15 -3 -14 10 2 9 11 17 16 17 10 0 -5 4 -4 8 2
4 7 26 15 47 18 22 4 67 13 101 20 33 8 69 13 79 11 11 -2 40 5 65 14 49 17
80 16 80 -5 0 -16 -22 -25 -48 -18 -14 3 -24 -2 -32 -17 -9 -18 -9 -21 0 -15
7 4 16 1 21 -6 8 -12 11 -12 19 1 5 8 10 10 10 5 0 -6 -5 -16 -12 -23 -7 -7
-8 -12 -2 -12 15 0 30 14 37 33 3 9 17 17 29 17 15 0 33 14 53 43 24 33 30 38
33 23 2 -10 -1 -22 -8 -26 -13 -8 33 -28 85 -37 17 -3 32 -5 35 -6 3 -1 32 9
65 22 33 13 70 23 82 23 22 1 22 17 0 46 -5 6 -6 12 -1 12 5 0 -1 7 -14 15
-25 19 -50 9 -75 -28 -8 -13 -36 -32 -62 -42 -44 -16 -48 -16 -57 -1 -5 9 -16
16 -24 16 -33 0 -5 25 42 38 27 8 57 18 66 23 10 5 27 9 39 9 11 0 30 5 41 11
17 9 23 8 30 -5 5 -9 16 -16 23 -16 8 0 14 -5 13 -11 -2 -6 4 -14 12 -16 9 -3
11 -1 5 4 -17 14 -16 33 2 40 15 6 15 7 -3 15 -15 7 -13 7 6 3 14 -3 59 -9
100 -12 62 -5 79 -3 92 11 9 9 21 16 27 16 13 0 32 35 24 44 -3 3 -1 6 5 6 7
0 12 -4 12 -9 0 -5 34 11 76 37 61 37 77 43 84 32 7 -11 -4 -22 -45 -45 -29
-16 -88 -56 -129 -87 -42 -32 -79 -58 -83 -58 -3 0 -14 -6 -22 -13 -28 -24
-189 -72 -306 -92 -76 -12 -330 -77 -415 -105 -98 -33 -276 -80 -301 -80 -10
0 -19 -3 -21 -8 -1 -4 -29 -23 -61 -42 -60 -36 -79 -58 -90 -100 -4 -14 -20
-39 -37 -57 -16 -18 -30 -36 -30 -42 0 -33 -25 -61 -59 -67 -20 -3 -52 -12
-71 -19 -40 -15 -94 -9 -83 9 4 6 0 6 -9 -2 -16 -13 -48 -7 -48 10 0 12 -49
52 -65 54 -5 0 -15 2 -22 2 -18 3 -63 73 -63 98 0 11 -11 42 -25 68 -14 26
-24 50 -23 54 1 4 -3 17 -11 30 -7 13 -11 33 -9 45 2 18 10 23 46 25 25 2 42
-1 42 -7 0 -11 -13 -15 -40 -12 -13 2 -13 1 0 -8 8 -5 18 -7 22 -5 5 3 11 -2
14 -10 8 -21 27 -20 47 2 23 26 21 42 -5 43 l-23 0 23 10 c13 5 28 7 32 4 5
-3 11 -1 15 5 3 5 32 11 63 11 31 1 47 4 35 6 -13 2 -23 8 -23 12 0 5 -13 8
-30 7 -16 -1 -30 -4 -30 -8 0 -11 -12 -10 -30 2 -11 7 -12 12 -3 21 9 9 9 15
-2 25 -7 8 -19 14 -25 14 -6 0 -8 4 -5 10 4 6 -2 7 -17 2 -20 -7 -71 -8 -141
-3 -13 1 -17 8 -15 29 1 15 -5 41 -14 57 -9 17 -19 38 -22 48 -3 9 -12 17 -21
17 -17 0 -20 -16 -5 -25 6 -3 10 -22 10 -41 0 -29 -4 -34 -22 -34 -14 0 -18
-3 -12 -8 16 -10 28 -52 15 -52 -6 0 -11 7 -11 15 0 8 -5 15 -10 15 -6 0 -10
-6 -9 -12 5 -43 -18 -51 -51 -18 -24 24 -30 25 -30 5 0 -19 -26 -19 -34 0 -3
8 -1 15 5 15 6 0 7 5 4 10 -9 15 -55 12 -55 -3 0 -7 6 -19 13 -26 10 -10 7
-12 -13 -10 -58 5 -88 -1 -86 -17 0 -9 -5 -19 -13 -22 -10 -3 -12 0 -8 12 8
20 -18 33 -36 18 -7 -6 -38 -12 -70 -13 -31 -1 -57 -5 -57 -9 0 -4 -7 -7 -15
-7 -8 0 -15 7 -15 15 0 9 -6 12 -16 8 -9 -4 -13 -2 -8 5 4 8 -1 9 -15 4 -13
-4 -21 -2 -21 5 0 18 -29 42 -41 35 -6 -5 -4 -12 8 -21 16 -13 16 -14 -9 -8
-22 5 -28 2 -28 -10 0 -9 -4 -16 -9 -16 -13 0 -21 -53 -9 -68 8 -9 5 -12 -11
-12 -22 0 -30 -26 -8 -27 33 -2 82 -15 101 -28 11 -8 28 -15 36 -15 9 0 27
-15 41 -32 44 -60 69 -99 69 -108 0 -6 5 -10 12 -10 6 0 8 -3 5 -7 -4 -3 4
-16 18 -28 13 -13 21 -26 17 -31 -4 -4 0 -5 8 -2 8 2 23 -4 33 -14 9 -10 14
-18 10 -18 -5 0 6 -9 22 -20 17 -11 27 -20 23 -20 -12 0 35 -44 62 -58 38 -20
82 -88 82 -126 0 -78 -48 -116 -181 -142 -8 -1 -23 4 -35 11 -26 17 -68 20
-116 8 -99 -26 -261 33 -329 119 -38 46 -39 50 -37 123 0 42 6 79 11 83 16 10
13 45 -5 60 -13 11 -13 11 1 6 23 -7 32 11 14 26 -12 10 -15 10 -15 -1 0 -10
-3 -10 -8 -3 -4 6 -28 14 -55 18 -30 5 -56 16 -70 30 -26 28 -29 37 -35 100
-4 45 -2 50 38 91 26 27 38 45 31 50 -6 3 -9 11 -6 16 4 5 1 9 -5 9 -7 0 -10
-7 -6 -15 4 -12 -2 -15 -32 -15 -20 0 -99 -1 -176 -3 -108 -1 -140 1 -144 11
-2 8 -8 9 -11 4 -8 -12 -65 -26 -57 -14 3 5 -1 18 -9 28 -14 18 -14 18 -15 -3
0 -16 -5 -20 -19 -16 -17 4 -46 -5 -118 -40 -16 -7 -26 -7 -37 2 -14 12 -57
17 -86 10 -8 -2 -15 3 -15 11 0 10 9 14 25 13 14 -1 19 1 13 3 -19 8 -16 22 8
35 15 8 24 8 32 0 14 -14 47 -14 47 -1 0 5 6 7 13 5 17 -7 34 7 39 30 2 16 -2
20 -22 18 -18 -1 -29 6 -37 23 -8 18 -8 24 0 24 7 0 18 4 26 9 13 8 13 12 0
27 -13 16 -12 17 11 11 14 -4 30 -7 37 -7 6 0 15 -9 18 -20 3 -11 11 -20 16
-20 16 0 10 19 -17 45 -25 25 -25 27 -8 46 9 10 21 19 26 19 5 0 27 14 48 31
25 21 46 30 59 26 11 -3 21 -1 23 3 5 14 58 24 58 11 0 -6 5 -11 12 -11 9 0 9
3 0 12 -7 7 -12 18 -12 26 0 11 8 13 38 6 20 -4 50 -7 66 -6 16 1 37 -3 48 -9
17 -9 26 -5 57 23 29 27 45 34 83 36 39 2 49 -1 66 -23 11 -14 25 -25 31 -25
16 0 13 -36 -4 -54 -8 -8 -15 -17 -15 -20 0 -3 7 -3 15 0 9 4 15 0 15 -9 0 -8
-6 -18 -12 -20 -10 -4 -10 -6 0 -6 6 -1 12 -8 12 -16 0 -17 16 -20 25 -5 3 5
15 15 26 21 19 10 20 8 15 -27 -5 -31 -4 -35 8 -25 8 7 20 11 28 10 26 -4 78
14 78 26 0 8 5 15 12 17 6 2 -7 12 -31 21 -23 10 -40 21 -37 26 3 5 -3 11 -14
14 -12 3 -20 14 -20 25 0 11 -6 22 -12 24 -9 3 -4 17 15 42 16 20 32 34 37 31
5 -3 11 -1 15 5 4 6 11 7 17 4 8 -5 9 -1 5 10 -9 24 29 76 55 76 11 0 32 8 46
18 15 10 37 17 50 16 12 -1 48 14 80 33 l57 35 70 -16 c39 -9 80 -16 92 -16
12 0 24 -4 27 -8 3 -5 37 -10 75 -11 63 -2 71 0 93 24 13 14 35 27 48 30 33 6
70 26 70 37 0 5 6 6 13 2 6 -4 8 -3 4 1 -4 5 -19 11 -33 13 -14 1 -36 13 -49
25 -12 12 -32 30 -44 39 -11 10 -21 27 -21 38 0 23 -1 23 -55 10 -47 -11 -65
0 -65 41 0 32 -7 34 -60 19 -40 -11 -55 -2 -45 29 7 22 43 29 61 12 5 -6 28
-4 59 4 68 17 143 2 172 -35 8 -10 12 -11 13 -2 0 6 5 12 11 12 7 0 17 7 23
15 7 9 34 16 74 19 35 3 72 8 82 11 10 3 32 -1 48 -9 16 -8 32 -12 36 -9 3 4
7 -1 7 -10 2 -30 4 -35 11 -42 3 -4 5 5 4 20 -3 19 0 25 11 21 8 -3 25 1 38
10 27 18 52 23 145 31 60 4 67 3 89 -20 19 -21 27 -24 48 -16 14 5 29 7 34 3
5 -3 9 -1 9 5 0 5 18 22 39 38 40 28 57 58 40 69 -32 20 32 60 66 41 20 -11
183 -20 197 -11 5 4 35 7 66 9 75 3 123 14 144 33 16 13 16 17 3 43 -10 18
-11 30 -5 34 6 4 8 10 5 15 -4 7 13 18 40 26 68 18 134 24 216 19 91 -7 98 -6
147 20 39 20 59 25 88 20 41 -6 73 -32 66 -54 -3 -10 0 -11 18 -1 14 8 41 10
70 6 38 -5 52 -3 71 13 17 13 33 17 56 14 24 -4 34 -1 39 11 5 12 10 14 19 6
9 -7 16 -6 25 5 7 8 35 22 63 30 62 18 60 18 54 1 -4 -9 -1 -13 7 -10 7 3 28
-9 47 -26 19 -17 50 -42 70 -56 24 -16 39 -36 43 -55 5 -24 9 -29 28 -24 13 2
41 7 63 9 22 3 48 8 58 11 26 10 65 -2 77 -25 9 -17 5 -26 -27 -56 l-38 -36
42 5 c25 3 43 1 45 -5 3 -7 21 -8 51 -4 37 6 62 20 119 67 40 32 80 59 89 59
9 0 22 7 30 16 7 8 33 27 58 40 66 36 124 71 138 83 6 6 45 26 85 45 61 30 74
40 42 35 -3 -1 -19 12 -35 27 -16 15 -29 25 -29 21 0 -3 -10 -3 -22 2 -15 5
-37 0 -75 -20 -30 -16 -61 -33 -68 -39 -7 -6 -45 -13 -85 -15 -40 -3 -76 -8
-82 -11 -5 -3 -31 -8 -56 -11 -26 -2 -58 -8 -73 -12 -17 -6 -31 -4 -44 5 -14
10 -34 13 -70 8 -72 -8 -85 -7 -106 12 -10 9 -35 18 -56 19 -41 2 -93 23 -93
37 0 4 -6 8 -14 8 -23 0 -29 20 -12 39 9 10 16 21 16 24 0 4 -236 7 -525 7
-507 0 -526 -1 -557 -20 -43 -26 -112 -26 -171 0 -45 20 -58 20 -1599 16 -854
-2 -1572 -5 -1595 -6 -24 -2 -39 -8 -37 -14 2 -6 -7 -12 -21 -12 -25 -2 -35
11 -13 18 6 2 -9 4 -33 4 -43 -1 -44 -1 -26 -19 21 -21 18 -42 -6 -42 -8 0
-18 -3 -22 -7 -4 -3 7 -5 24 -4 17 1 31 -1 31 -6 0 -7 -14 -12 -31 -10 -3 1
-6 -6 -6 -13 0 -11 4 -12 13 -4 7 6 19 9 26 6 8 -4 7 -6 -4 -6 -10 -1 -18 -5
-18 -10 0 -16 -44 -17 -56 -2 -9 11 -12 12 -19 1 -5 -8 -4 -11 2 -7 6 4 14 0
17 -9 3 -8 10 -13 15 -9 5 3 13 0 17 -6 4 -8 3 -9 -4 -5 -13 8 -35 -28 -24
-39 4 -5 2 -5 -4 -2 -16 9 -28 -25 -12 -35 10 -6 8 -8 -4 -8 -22 0 -24 33 -3
50 8 7 15 17 15 23 0 6 -3 7 -7 4 -3 -4 -13 -1 -22 6 -14 11 -14 10 -1 -6 12
-17 12 -20 -2 -28 -10 -6 -14 -17 -10 -31 4 -16 2 -19 -9 -12 -28 17 -37 13
-25 -11 6 -13 15 -21 20 -18 5 4 6 1 1 -6 -5 -9 -10 -10 -18 -2 -6 6 -16 11
-22 11 -5 0 -4 -4 3 -8 7 -5 14 -18 16 -29 4 -17 0 -20 -17 -15 -20 5 -20 6
-1 13 18 7 17 10 -5 13 -5 0 -13 4 -17 9 -4 4 -12 7 -18 7 -5 0 -1 -7 10 -15
10 -8 15 -15 10 -15 -5 0 -2 -8 5 -17 10 -11 10 -14 2 -9 -9 5 -13 0 -13 -13
0 -12 -7 -21 -15 -21 -17 0 -19 -11 -5 -28 7 -9 7 -9 -2 -2 -16 13 -31 13 -23
0 9 -14 -8 -12 -25 3 -8 6 -6 2 4 -10 17 -21 17 -21 -3 -16 -13 3 -21 1 -21
-6 0 -7 4 -10 9 -6 5 3 12 1 16 -5 4 -6 -4 -10 -19 -10 -14 0 -27 -4 -31 -9
-3 -5 -18 -8 -33 -6 -15 2 -22 2 -15 -1 7 -3 9 -13 6 -22 -4 -13 -2 -12 11 3
9 11 15 15 14 10 -2 -6 2 -11 7 -13 6 -1 10 3 10 8 0 23 18 8 21 -17 1 -16 0
-22 -3 -15 -7 19 -26 14 -19 -5 5 -16 5 -16 -8 0 -11 14 -19 16 -33 9 -10 -5
-23 -7 -30 -5 -7 3 -9 -3 -6 -17 4 -15 8 -18 13 -10 5 9 9 9 14 1 7 -11 -6
-15 -33 -12 -7 2 -10 -2 -7 -8 4 -5 2 -12 -3 -15 -5 -4 -13 -1 -17 5 -5 8 -3
9 6 4 9 -5 11 -4 6 4 -4 6 -10 10 -14 8 -11 -6 -41 30 -34 39 4 4 1 4 -6 0
-10 -6 -7 -14 13 -33 28 -28 32 -42 13 -44 -72 -7 -78 -6 -76 10 2 9 -5 16
-17 18 -11 1 -14 0 -7 -3 6 -3 12 -10 12 -16 0 -6 -9 -3 -20 7 -17 15 -22 16
-37 4 -11 -9 -14 -10 -9 -1 5 8 1 12 -11 12 -15 0 -16 2 -3 10 9 6 16 6 18 0
2 -5 13 -5 27 0 12 5 25 6 28 3 3 -2 13 7 22 21 10 15 22 23 29 19 6 -4 5 1
-3 10 -14 18 -23 22 -18 10 2 -8 -6 -13 -23 -13 -7 0 -7 7 1 21 8 15 8 19 0
15 -12 -8 -15 6 -13 66 1 22 -4 38 -12 40 -9 2 -7 9 7 23 11 11 16 13 12 5 -6
-12 -5 -13 5 -3 11 10 17 10 30 0 9 -6 6 -2 -6 9 -21 21 -22 22 -4 27 10 3 24
0 30 -7 10 -8 10 -6 3 9 -5 11 -8 26 -7 33 1 6 2 16 3 22 0 5 8 7 17 3 13 -5
13 -7 2 -14 -11 -7 -11 -9 1 -9 10 0 11 -3 2 -13 -6 -8 -8 -17 -4 -20 14 -15
20 -5 20 36 1 61 2 67 14 67 5 0 7 -4 4 -10 -3 -5 -1 -10 4 -10 6 0 11 -5 11
-11 0 -5 -4 -8 -8 -5 -5 3 -9 0 -9 -7 0 -7 10 -12 22 -12 21 0 21 1 6 24 -15
24 -15 24 11 18 17 -5 30 -2 38 7 9 12 6 14 -24 10 -19 -2 -37 0 -40 4 -4 8
15 12 62 15 12 0 22 6 22 12 0 5 5 3 11 -5 9 -13 10 -13 6 0 -2 8 -10 14 -16
13 -6 -2 -11 6 -11 18 0 13 -4 18 -12 13 -9 -5 -9 -2 1 9 14 18 23 22 18 10
-1 -5 2 -9 7 -10 5 -1 13 -7 17 -15 7 -10 9 -10 9 0 0 6 5 12 11 12 5 0 8 -4
4 -9 -3 -5 -1 -13 5 -16 6 -4 10 -3 9 2 -4 20 2 27 12 13 9 -13 10 -13 6 0 -2
8 -9 16 -15 16 -7 1 -19 2 -27 3 -13 1 -13 3 -3 15 8 8 17 10 23 6 7 -6 16 -1
24 12 11 17 10 22 -1 29 -10 7 -9 9 4 9 11 0 15 5 12 15 -5 13 -266 15 -2265
15 l-2259 0 0 -125z m4765 95 c-3 -6 4 -14 17 -19 13 -6 17 -10 9 -10 -9 -1
-11 -9 -7 -28 5 -24 3 -22 -14 10 -18 33 -20 57 -4 57 3 0 2 -5 -1 -10z m-20
-129 c3 -5 2 -12 -3 -15 -5 -3 -9 1 -9 9 0 17 3 19 12 6z m2436 -62 c37 -46
42 -77 17 -118 -14 -22 -21 -48 -19 -77 1 -32 -4 -49 -19 -64 -25 -25 -36 -25
-85 3 -36 20 -51 22 -165 20 -114 -3 -218 -14 -238 -27 -16 -9 -152 41 -152
56 0 14 -78 1 -106 -17 -29 -18 -122 -5 -140 20 -17 23 -48 12 -41 -14 6 -25
-27 -40 -84 -36 -55 4 -76 9 -86 20 -4 4 -3 5 4 1 6 -3 15 0 20 8 12 20 75 54
96 51 9 -2 15 1 11 6 -3 5 -1 9 4 9 5 0 12 9 15 19 2 11 24 32 48 47 24 15 62
39 84 54 68 45 104 55 195 53 111 -1 277 -10 314 -17 16 -2 36 0 45 5 33 19
138 38 195 35 53 -2 61 -6 87 -37z m4061 6 c7 -9 20 -24 28 -33 8 -9 13 -16
11 -15 -2 2 -9 -1 -16 -7 -14 -12 -78 5 -95 25 -10 12 -10 18 0 30 16 19 56
19 72 0z m233 -25 c4 -12 2 -27 -5 -35 -16 -20 -87 -30 -105 -15 -22 18 -19
28 18 50 43 26 84 26 92 0z m-1229 -35 c-11 -8 -25 -15 -30 -15 -6 0 -2 7 8
15 11 8 25 15 30 15 6 0 2 -7 -8 -15z m-56 -39 c0 -2 -7 -9 -15 -16 -13 -11
-14 -10 -9 4 5 14 24 23 24 12z m65 -46 c22 -8 24 -13 15 -30 -8 -14 -21 -20
-48 -20 -38 0 -71 -14 -60 -25 8 -8 36 -9 78 0 l35 6 -23 -20 c-13 -11 -29
-18 -36 -15 -8 3 -17 1 -21 -5 -3 -6 -1 -11 4 -11 6 0 11 -4 11 -8 0 -7 -43
-31 -275 -152 -95 -49 -182 -81 -202 -73 -11 4 -14 3 -9 -5 8 -13 5 -14 -34
-17 -14 -2 -33 -6 -42 -10 -35 -14 -17 13 20 30 20 10 51 30 67 45 17 16 49
38 73 50 28 15 41 28 38 36 -3 8 1 14 9 14 20 0 85 32 85 42 0 4 7 8 15 8 8 0
15 4 15 9 0 6 9 8 20 6 11 -2 20 0 20 4 0 12 77 61 95 61 8 0 30 17 49 37 28
30 36 35 48 25 17 -14 29 -6 21 14 -6 17 -3 17 32 4z m-6065 -40 c0 -5 -2 -10
-4 -10 -3 0 -8 5 -11 10 -3 6 -1 10 4 10 6 0 11 -4 11 -10z m-3308 -27 c23
-21 23 -44 -1 -72 -19 -21 -21 -22 -50 -6 -35 18 -42 53 -15 79 20 21 43 20
66 -1z m3323 -23 c2 -12 7 -25 9 -28 3 -2 1 -13 -4 -23 -8 -15 -7 -17 9 -14
13 2 18 -1 15 -9 -5 -13 -48 -14 -77 -1 -14 6 -16 10 -6 16 8 4 20 3 28 -4 12
-9 13 -9 7 1 -4 7 -2 12 6 12 9 0 9 3 -2 10 -10 6 -11 10 -2 10 6 0 12 5 12
11 0 5 -4 8 -9 5 -4 -3 -6 6 -3 20 5 28 11 27 17 -6z m1795 -11 c0 -5 5 -7 10
-4 6 3 10 4 10 1 0 -13 -42 -26 -65 -20 -20 5 -23 9 -14 20 13 16 59 19 59 3z
m-1120 -54 c8 -5 22 -10 30 -12 22 -3 53 -44 41 -56 -5 -5 -40 -11 -77 -13
-159 -9 -172 -6 -159 35 13 43 122 73 165 46z m376 -17 c4 -28 -91 -42 -107
-16 -4 7 -15 3 -29 -10 -32 -30 -71 -37 -87 -17 -18 26 3 52 41 51 17 -1 36
-5 42 -9 7 -4 17 0 24 8 7 8 15 13 19 11 4 -3 13 -1 20 3 20 13 74 -2 77 -21z
m4414 2 c0 -5 -5 -10 -11 -10 -5 0 -7 5 -4 10 3 6 8 10 11 10 2 0 4 -4 4 -10z
m-7006 -24 c19 -8 36 -18 39 -24 23 -35 -84 -67 -128 -38 -30 20 -31 30 -5 56
24 24 48 25 94 6z m308 -25 c14 -14 29 -18 48 -14 27 5 70 -10 70 -25 -1 -17
-30 -43 -47 -42 -80 2 -147 11 -159 21 -17 14 -18 51 -2 67 18 18 66 14 90 -7z
m2742 -6 c23 -24 8 -45 -49 -70 -68 -31 -118 -65 -152 -106 -15 -19 -36 -43
-45 -53 -10 -11 -20 -27 -23 -37 -7 -22 -42 -44 -82 -53 -18 -4 -34 -6 -35 -5
-2 1 -12 -3 -24 -9 -16 -8 -27 -8 -47 3 -15 8 -27 12 -27 9 0 -11 -61 29 -101
66 -36 33 -50 40 -79 39 -53 -3 -76 8 -91 44 -27 64 3 108 68 100 21 -3 40 -7
42 -9 2 -2 11 1 20 5 10 6 36 4 66 -4 34 -8 54 -9 63 -3 8 7 12 7 12 -1 0 -14
33 -9 53 7 8 7 19 12 23 11 5 -1 21 3 37 9 19 8 35 8 53 1 20 -7 31 -6 43 5
31 27 79 45 142 54 96 14 116 13 133 -3z m720 6 c3 -5 -1 -15 -10 -22 -34 -28
-93 -17 -81 15 7 17 81 23 91 7z m-134 -26 c0 -20 -5 -25 -24 -25 -14 0 -28 5
-31 10 -12 19 4 40 30 40 20 0 25 -5 25 -25z m-2035 -166 c4 -6 13 -8 21 -5
19 7 18 4 -8 -18 -17 -15 -20 -15 -15 -3 3 9 2 19 -3 22 -9 6 -14 -8 -11 -28
1 -5 -3 -6 -8 -3 -11 7 -3 46 10 46 4 0 11 -5 14 -11z m5355 -6 c0 -21 -174
-155 -280 -216 -26 -15 -79 -37 -119 -50 -63 -21 -74 -22 -87 -10 -16 16 -19
37 -4 28 6 -3 10 -1 10 5 0 6 15 17 33 25 19 8 39 21 47 29 7 9 17 16 22 16 5
0 24 11 42 25 18 14 38 25 44 25 14 0 81 37 103 56 33 29 189 85 189 67z
m-5390 -79 c0 -2 -9 0 -20 6 -11 6 -20 13 -20 16 0 2 9 0 20 -6 11 -6 20 -13
20 -16z m37 9 c-4 -3 -2 -12 4 -20 18 -21 4 -15 -16 7 -17 19 -17 20 0 20 10
0 15 -3 12 -7z m3 -79 c0 -8 -19 -13 -24 -6 -3 5 1 9 9 9 8 0 15 -2 15 -3z
m4616 -29 c-10 -8 -23 -12 -29 -8 -11 7 12 23 33 23 12 -1 11 -4 -4 -15z
m-8319 -25 c3 -11 10 -20 15 -20 5 0 7 -4 4 -9 -8 -12 -56 10 -56 25 0 29 30
32 37 4z m3563 10 c0 -5 -5 -10 -11 -10 -5 0 -7 5 -4 10 3 6 8 10 11 10 2 0 4
-4 4 -10z m26 -32 c4 -7 4 -10 -1 -6 -4 4 -14 3 -22 -4 -11 -8 -12 -7 -7 6 7
19 20 21 30 4z m-8 -43 c1 -14 -1 -16 -7 -6 -5 8 -16 11 -30 6 -11 -3 -21 -2
-21 3 0 14 6 17 32 17 17 0 25 -6 26 -20z m-518 -5 c0 -5 -8 -10 -17 -10 -15
0 -16 2 -3 10 19 12 20 12 20 0z m495 -21 c-5 -15 -4 -19 4 -15 6 4 11 5 11 2
0 -16 -21 -13 -30 5 -8 15 -9 19 -1 15 6 -4 11 -2 11 3 0 6 3 11 6 11 3 0 2
-10 -1 -21z m772 -11 c11 -13 23 -43 26 -68 3 -24 11 -46 16 -48 16 -5 13 -38
-4 -52 -8 -7 -15 -18 -15 -24 0 -6 -9 -22 -20 -36 -11 -14 -20 -33 -20 -44 0
-16 5 -18 38 -12 26 4 45 1 58 -9 10 -8 28 -15 40 -15 22 0 41 -29 46 -70 2
-16 10 -26 23 -28 l20 -4 -20 15 c-16 12 -17 18 -8 28 9 9 18 8 39 -6 15 -9
23 -11 19 -4 -6 9 -3 10 11 4 10 -4 27 -8 36 -9 20 0 32 -22 18 -31 -6 -4 -10
-2 -10 3 0 6 -16 10 -35 9 -19 -1 -35 -5 -35 -9 0 -4 -18 -8 -41 -8 -22 0 -38
4 -35 8 2 4 0 14 -5 22 -8 13 -11 12 -20 -2 -5 -10 -17 -18 -24 -18 -8 0 -15
-4 -15 -10 0 -16 -42 -12 -62 7 -10 9 -18 11 -18 5 0 -18 -63 -25 -109 -12
-72 19 -104 20 -123 3 -12 -11 -37 -15 -83 -15 -36 0 -65 -5 -65 -10 0 -5 -10
-2 -22 6 -28 20 -54 20 -61 2 -5 -14 -57 -20 -57 -6 0 4 10 12 23 19 18 9 19
10 2 7 -67 -15 -95 -17 -95 -7 0 6 5 11 10 11 6 0 10 5 10 10 0 6 -9 10 -20
10 -11 0 -20 -4 -20 -9 0 -5 -27 -18 -60 -29 -45 -16 -60 -17 -60 -8 0 20 42
54 47 39 7 -20 35 -16 31 5 -4 23 -48 29 -60 8 -5 -9 -16 -16 -24 -16 -9 0
-14 -7 -12 -17 2 -14 -5 -19 -29 -21 -19 -2 -33 1 -33 7 0 6 8 12 18 12 16 1
16 2 0 6 -20 5 -22 20 -8 57 8 21 7 26 -6 26 -11 0 -15 6 -11 19 2 11 1 37 -3
60 -5 27 -4 38 3 34 6 -4 8 2 5 15 -4 12 -3 20 1 17 11 -6 45 66 43 90 -1 18
-1 18 6 2 7 -16 10 -16 40 6 17 13 28 28 24 32 -4 5 -2 5 5 1 6 -3 23 5 37 19
14 14 32 25 41 25 10 0 13 5 9 12 -5 7 -3 8 6 3 7 -4 96 -8 199 -9 102 -1 191
-5 197 -8 6 -4 22 -1 37 7 28 14 60 21 113 24 20 1 37 -6 51 -21z m-857 -138
c6 -11 8 -20 6 -20 -3 0 -10 9 -16 20 -6 11 -8 20 -6 20 3 0 10 -9 16 -20z
m7770 -34 c0 -7 -10 -21 -22 -32 -13 -12 -18 -13 -13 -4 8 13 7 13 -9 1 -14
-12 -19 -12 -29 -1 -10 10 -9 11 3 6 8 -4 6 -1 -4 8 -19 15 -19 16 0 22 10 3
28 9 39 14 23 9 35 4 35 -14z m-3508 -58 c-26 -10 -32 -9 -32 6 0 18 32 26 42
11 4 -5 0 -13 -10 -17z m-4342 -8 c0 -5 -5 -10 -11 -10 -5 0 -7 -5 -3 -12 4
-7 3 -8 -4 -4 -6 4 -9 13 -5 21 6 17 23 20 23 5z m-58 -67 c-6 -2 -10 -9 -6
-14 3 -5 0 -9 -5 -9 -12 0 -14 13 -4 23 3 4 11 7 17 6 6 0 5 -3 -2 -6z m2468
-33 c0 -5 -5 -10 -11 -10 -5 0 -7 5 -4 10 3 6 8 10 11 10 2 0 4 -4 4 -10z
m-33 -6 c-3 -3 -12 -4 -19 -1 -8 3 -5 6 6 6 11 1 17 -2 13 -5z m811 -34 c-7
-10 -14 -18 -15 -16 -6 6 9 36 18 36 5 0 4 -9 -3 -20z m57 10 c3 -5 2 -10 -4
-10 -5 0 -13 5 -16 10 -3 6 -2 10 4 10 5 0 13 -4 16 -10z m-1925 -30 c0 -5 -4
-10 -9 -10 -5 0 -16 -3 -25 -6 -9 -3 -16 -1 -16 4 0 9 16 17 43 21 4 0 7 -3 7
-9z m-790 -40 c8 -5 11 -12 8 -15 -4 -4 -17 0 -30 9 -24 17 -5 23 22 6z m2527
-7 c4 -10 10 -21 15 -24 14 -9 -2 -39 -21 -39 -20 0 -84 63 -75 73 15 15 75 7
81 -10z m-2527 -43 c0 -5 -4 -10 -10 -10 -5 0 -10 5 -10 10 0 6 5 10 10 10 6
0 10 -4 10 -10z m953 -44 c10 -10 27 -13 57 -9 54 8 52 -12 -6 -43 -55 -31
-104 -40 -104 -21 0 9 -4 17 -9 19 -21 7 -15 42 9 55 32 16 35 16 53 -1z
m-210 -31 c-6 -17 -25 -15 -31 3 -2 7 5 12 17 12 14 0 19 -5 14 -15z m87 5 c0
-9 -61 -40 -68 -34 -2 1 1 12 8 23 11 21 60 30 60 11z m27 -39 c12 10 16 10
24 -2 6 -11 2 -15 -17 -17 -15 -2 -38 0 -53 4 l-26 7 25 7 c14 3 27 2 28 -2 2
-5 11 -3 19 3z"/>
<path d="M5295 3269 c4 -5 11 -6 17 -3 7 4 8 2 4 -4 -4 -6 -13 -9 -20 -6 -8 3
-17 0 -22 -7 -4 -7 -3 -10 3 -6 6 4 13 0 17 -8 6 -17 76 -18 76 -1 0 16 -13
31 -30 34 -42 10 -50 10 -45 1z"/>
<path d="M9150 2910 c0 -5 5 -10 10 -10 6 0 10 5 10 10 0 6 -4 10 -10 10 -5 0
-10 -4 -10 -10z"/>
<path d="M4330 2692 c-19 -8 -44 -16 -55 -17 -11 -1 -24 -3 -29 -4 -4 0 -6 -7
-3 -15 3 -8 -3 -23 -13 -34 -16 -17 -17 -24 -7 -46 7 -14 17 -26 23 -26 6 0
23 -9 37 -20 22 -18 26 -18 37 -4 7 8 20 12 28 9 8 -3 25 4 37 15 16 15 25 18
30 10 5 -8 10 -6 18 5 7 8 22 17 35 20 30 5 54 31 50 53 -5 24 -91 22 -119 -3
-23 -21 -38 -12 -22 14 8 12 8 23 -1 38 -10 19 -13 19 -46 5z"/>
<path d="M4965 2519 c-5 -7 -1 -18 10 -25 25 -18 31 -10 12 16 -11 16 -17 18
-22 9z"/>
<path d="M4533 3924 c0 -11 9 -14 31 -12 21 1 30 -2 28 -11 -1 -7 2 -10 8 -6
5 3 10 13 10 21 0 8 -4 13 -9 10 -5 -4 -12 0 -14 6 -4 10 -6 10 -6 1 -1 -7 -6
-13 -12 -13 -5 0 -7 5 -4 10 3 6 -2 10 -13 10 -10 0 -19 -7 -19 -16z"/>
<path d="M4635 3910 c-3 -5 -1 -10 4 -10 6 0 11 5 11 10 0 6 -2 10 -4 10 -3 0
-8 -4 -11 -10z"/>
<path d="M4550 3884 c0 -8 5 -12 10 -9 6 3 10 10 10 16 0 5 -4 9 -10 9 -5 0
-10 -7 -10 -16z"/>
<path d="M4534 3609 c0 -10 4 -19 8 -19 4 0 8 6 8 14 0 8 -4 17 -8 20 -4 2 -8
-4 -8 -15z"/>
<path d="M4231 3574 c0 -11 3 -14 6 -6 3 7 2 16 -1 19 -3 4 -6 -2 -5 -13z"/>
<path d="M4260 3520 c-9 -6 -10 -10 -3 -10 6 0 15 5 18 10 8 12 4 12 -15 0z"/>
<path d="M4416 3508 c3 -5 10 -6 15 -3 13 9 11 12 -6 12 -8 0 -12 -4 -9 -9z"/>
<path d="M4305 3481 c-3 -6 3 -15 14 -21 12 -6 18 -18 16 -30 -3 -13 2 -20 13
-20 12 0 13 3 5 11 -6 6 -9 17 -6 24 2 7 -5 16 -16 20 -12 3 -19 11 -16 16 4
5 4 9 1 9 -3 0 -7 -4 -11 -9z"/>
<path d="M8340 3480 c0 -5 5 -10 11 -10 5 0 7 5 4 10 -3 6 -8 10 -11 10 -2 0
-4 -4 -4 -10z"/>
<path d="M8304 3455 c-4 -14 -3 -29 0 -33 9 -8 26 18 26 41 0 26 -19 20 -26
-8z"/>
<path d="M9168 3393 c6 -2 18 -2 25 0 6 3 1 5 -13 5 -14 0 -19 -2 -12 -5z"/>
<path d="M9225 3390 c19 -9 19 -9 -2 -16 -15 -4 -24 -15 -24 -30 -1 -13 -2
-28 -3 -34 -1 -5 4 -10 9 -9 6 0 9 7 8 16 0 9 9 25 21 37 27 25 23 46 -7 45
-21 0 -21 -1 -2 -9z"/>
<path d="M8197 3383 c-12 -11 -8 -23 8 -23 8 0 15 7 15 15 0 16 -12 20 -23 8z"/>
<path d="M8250 3352 c0 -18 32 -52 49 -52 17 0 16 35 -1 52 -23 23 -48 23 -48
0z"/>
<path d="M9135 3360 c3 -5 8 -10 11 -10 2 0 4 5 4 10 0 6 -5 10 -11 10 -5 0
-7 -4 -4 -10z"/>
<path d="M6946 3345 c-3 -8 -1 -15 4 -15 13 0 22 18 11 24 -5 3 -11 -1 -15 -9z"/>
<path d="M7950 3276 c0 -8 5 -18 10 -21 6 -3 10 3 10 14 0 12 -4 21 -10 21 -5
0 -10 -6 -10 -14z"/>
<path d="M9300 3275 c0 -9 -6 -12 -15 -9 -10 4 -15 0 -15 -10 0 -14 3 -15 22
-5 13 7 29 18 36 26 11 11 10 13 -7 13 -12 0 -21 -6 -21 -15z"/>
<path d="M8063 3265 c-3 -9 -3 -19 1 -22 8 -9 37 18 30 28 -8 14 -24 11 -31
-6z"/>
<path d="M7910 3261 c0 -12 26 -32 33 -25 9 10 -4 34 -19 34 -8 0 -14 -4 -14
-9z"/>
<path d="M7920 3210 c0 -5 5 -10 10 -10 6 0 10 5 10 10 0 6 -4 10 -10 10 -5 0
-10 -4 -10 -10z"/>
<path d="M7835 3199 c5 -8 1 -9 -15 -4 -14 5 -25 2 -31 -6 -5 -8 -33 -14 -76
-16 -151 -6 -164 -14 -99 -61 36 -26 46 -29 55 -18 18 22 73 26 94 8 15 -14
24 -14 67 -3 50 13 51 13 85 -18 20 -17 40 -31 44 -31 13 0 22 44 10 48 -6 3
-5 9 2 19 8 9 9 17 3 21 -6 4 -13 15 -17 25 -4 9 -17 17 -30 17 -13 0 -27 4
-32 9 -16 14 -68 24 -60 10z"/>
<path d="M8020 3195 c0 -8 4 -15 10 -15 5 0 7 7 4 15 -4 8 -8 15 -10 15 -2 0
-4 -7 -4 -15z"/>
<path d="M121 3174 c-28 -20 -14 -38 23 -28 17 4 26 12 24 22 -4 22 -20 24
-47 6z"/>
<path d="M8070 3160 c-11 -11 -20 -27 -20 -35 0 -8 -7 -15 -16 -15 -8 0 -13
-4 -9 -9 3 -5 1 -12 -5 -16 -5 -3 -10 -17 -10 -30 0 -13 -4 -26 -9 -29 -28
-17 22 -82 69 -90 28 -5 40 -1 60 17 14 12 37 30 53 40 15 10 27 26 27 37 0
10 5 22 10 25 6 3 10 15 10 25 0 14 -8 20 -32 22 -24 2 -36 10 -46 31 -7 15
-20 27 -28 27 -7 0 -14 5 -14 10 0 16 -18 12 -40 -10z"/>
<path d="M8575 3170 c3 -5 12 -7 20 -3 21 7 19 13 -6 13 -11 0 -18 -4 -14 -10z"/>
<path d="M4146 3118 c3 -5 10 -6 15 -3 13 9 11 12 -6 12 -8 0 -12 -4 -9 -9z"/>
<path d="M4106 3031 c-4 -5 -2 -12 3 -15 5 -4 12 -2 15 3 4 5 2 12 -3 15 -5 4
-12 2 -15 -3z"/>
<path d="M3691 2957 c-14 -17 -5 -26 19 -20 11 3 16 11 13 19 -7 18 -17 18
-32 1z"/>
<path d="M7961 2961 c0 -8 -9 -20 -18 -27 -16 -12 -16 -15 -3 -24 13 -8 13
-11 1 -19 -17 -11 79 -26 108 -16 44 14 17 52 -43 62 -20 3 -37 12 -39 22 -3
11 -5 11 -6 2z"/>
<path d="M8271 2951 c-6 -11 -7 -22 -2 -25 5 -3 11 4 14 16 8 30 1 35 -12 9z"/>
<path d="M8387 2913 c8 -20 28 -43 38 -43 3 0 -2 14 -12 30 -19 32 -37 41 -26
13z"/>
<path d="M8342 2859 c2 -7 10 -15 17 -17 8 -3 12 1 9 9 -2 7 -10 15 -17 17 -8
3 -12 -1 -9 -9z"/>
<path d="M195 2850 c-9 -15 4 -30 39 -47 l31 -14 -37 5 c-43 5 -46 -1 -27 -64
9 -28 17 -38 33 -38 17 0 56 -4 135 -14 24 -3 38 6 49 29 16 35 15 43 -3 43
-8 0 -15 5 -15 11 0 6 -10 10 -22 9 -13 -1 -29 -2 -35 -1 -18 1 -16 21 2 21 8
0 15 4 15 10 0 18 -42 32 -76 26 -26 -5 -38 -2 -54 14 -23 23 -26 24 -35 10z"/>
<path d="M3662 2840 c0 -14 2 -19 5 -12 2 6 2 18 0 25 -3 6 -5 1 -5 -13z"/>
<path d="M8226 2841 c-4 -5 -2 -12 3 -15 5 -4 12 -2 15 3 4 5 2 12 -3 15 -5 4
-12 2 -15 -3z"/>
<path d="M7980 2771 c0 -6 4 -12 8 -15 5 -3 9 1 9 9 0 8 -4 15 -9 15 -4 0 -8
-4 -8 -9z"/>
<path d="M3985 2704 c0 -19 3 -34 6 -34 12 0 16 59 5 63 -7 3 -11 -9 -11 -29z"/>
<path d="M5814 2699 c9 -26 12 -27 27 -13 9 8 23 12 32 9 8 -4 18 -2 21 4 7
10 -7 15 -65 24 -25 3 -25 2 -15 -24z"/>
<path d="M3953 2708 c-11 -15 -11 -38 0 -38 4 0 10 0 13 0 4 0 1 6 -5 14 -10
11 -8 17 6 25 10 6 13 11 7 11 -6 0 -16 -6 -21 -12z"/>
<path d="M6368 2683 c7 -3 16 -2 19 1 4 3 -2 6 -13 5 -11 0 -14 -3 -6 -6z"/>
<path d="M6245 2661 c-9 -24 14 -39 29 -18 7 9 23 17 35 17 11 0 21 3 21 8 0
14 -80 8 -85 -7z"/>
<path d="M4 2645 c-12 -31 1 -141 21 -171 11 -16 19 -32 17 -36 -1 -4 8 -5 21
-2 55 13 88 13 81 1 -4 -7 1 -5 12 4 10 9 31 15 46 14 15 -1 25 2 22 6 -2 4 0
10 6 14 5 3 10 0 10 -7 0 -8 5 -6 11 5 8 14 6 27 -6 53 -9 19 -20 35 -25 35
-6 1 -14 2 -20 3 -5 0 -16 10 -24 21 -9 11 -16 16 -16 10 0 -5 -7 1 -16 13
-13 19 -22 22 -45 17 -21 -5 -37 -1 -59 15 -26 19 -31 19 -36 5z"/>
<path d="M157 2636 c-4 -10 -5 -21 -2 -24 9 -9 17 6 13 25 -3 17 -4 17 -11 -1z"/>
<path d="M3800 2626 c0 -2 8 -10 18 -17 15 -13 16 -12 3 4 -13 16 -21 21 -21
13z"/>
<path d="M7440 2615 c-7 -9 -8 -15 -2 -15 5 0 12 7 16 15 3 8 4 15 2 15 -2 0
-9 -7 -16 -15z"/>
<path d="M5988 2613 c7 -3 16 -2 19 1 4 3 -2 6 -13 5 -11 0 -14 -3 -6 -6z"/>
<path d="M6873 2598 c2 -12 8 -23 14 -25 6 -2 8 7 6 22 -6 31 -24 34 -20 3z"/>
<path d="M6033 2588 c-23 -30 -26 -43 -6 -25 11 9 28 17 39 17 16 0 17 2 4 10
-20 13 -26 12 -37 -2z"/>
<path d="M6107 2583 c-13 -12 -7 -23 11 -23 10 0 23 -5 30 -12 9 -9 12 -8 12
5 0 9 -9 21 -19 27 -23 12 -26 12 -34 3z"/>
<path d="M7245 2580 c-3 -5 1 -10 9 -10 9 0 16 5 16 10 0 6 -4 10 -9 10 -6 0
-13 -4 -16 -10z"/>
<path d="M7251 2546 c-10 -12 -8 -13 8 -9 12 3 21 9 21 14 0 14 -16 11 -29 -5z"/>
<path d="M6025 2540 c-3 -6 1 -7 9 -4 18 7 21 14 7 14 -6 0 -13 -4 -16 -10z"/>
<path d="M5900 2533 c-69 -26 -68 -25 -30 -34 26 -6 38 -4 46 7 6 7 16 14 23
14 6 0 11 5 11 10 0 11 -25 12 -50 3z"/>
<path d="M5976 2531 c-4 -7 -5 -15 -2 -18 9 -9 19 4 14 18 -4 11 -6 11 -12 0z"/>
<path d="M7336 2532 c-8 -13 28 -22 45 -11 9 6 10 9 2 9 -6 0 -18 3 -26 6 -8
3 -18 1 -21 -4z"/>
<path d="M6161 2519 c-1 -21 29 -47 52 -44 9 2 23 -6 31 -16 13 -19 14 -19 18
6 3 14 1 25 -4 25 -5 0 -6 5 -2 11 5 9 -6 10 -39 7 -37 -4 -47 -2 -50 11 -4
14 -5 14 -6 0z"/>
<path d="M7758 2503 c7 -3 16 -2 19 1 4 3 -2 6 -13 5 -11 0 -14 -3 -6 -6z"/>
<path d="M7658 2460 c2 -17 8 -30 13 -30 14 0 11 36 -4 49 -11 8 -13 5 -9 -19z"/>
<path d="M7435 2460 c3 -5 8 -10 11 -10 2 0 4 5 4 10 0 6 -5 10 -11 10 -5 0
-7 -4 -4 -10z"/>
<path d="M7240 2443 c0 -2 7 -11 15 -19 9 -10 15 -11 15 -4 0 7 8 9 21 5 18
-6 20 -5 9 6 -12 13 -60 23 -60 12z"/>
<path d="M7386 2433 c-4 -4 -22 -13 -39 -20 -18 -6 -24 -12 -14 -12 9 -1 17
-6 17 -12 0 -6 7 -8 16 -5 8 3 25 1 36 -5 16 -9 24 -7 36 5 11 11 12 16 4 16
-7 0 -12 8 -10 18 3 18 -31 30 -46 15z"/>
<path d="M7655 2360 c3 -5 8 -10 11 -10 2 0 4 5 4 10 0 6 -5 10 -11 10 -5 0
-7 -4 -4 -10z"/>
<path d="M7143 2326 c-10 -11 -9 -15 2 -20 10 -4 15 1 15 14 0 23 -1 24 -17 6z"/>
<path d="M7433 2312 c-33 -5 -28 -17 7 -19 17 -1 30 2 30 7 0 13 -12 17 -37
12z"/>
<path d="M658 2295 c27 -42 19 -184 -12 -235 -9 -13 -8 -13 9 0 17 14 18 13
12 -2 -4 -13 -2 -15 10 -11 9 4 14 2 12 -3 -3 -5 8 -22 24 -37 17 -16 27 -21
24 -13 -8 20 -3 20 17 0 10 -10 16 -11 16 -3 0 8 5 8 17 -2 15 -12 16 -12 8 1
-5 9 1 7 15 -5 13 -11 20 -14 15 -6 -6 11 -3 11 14 -2 13 -8 29 -13 36 -11 7
3 15 -2 19 -12 5 -12 9 -14 20 -5 8 7 27 9 47 5 19 -4 57 -6 86 -6 29 1 55 -3
58 -8 4 -6 17 -10 30 -10 18 0 23 -4 19 -15 -4 -9 0 -15 10 -15 14 0 20 -17
19 -57 -1 -7 4 -13 10 -13 5 0 2 -9 -8 -20 -10 -11 -15 -20 -10 -20 4 0 -3 -9
-16 -20 -21 -17 -22 -21 -9 -30 8 -5 25 -10 37 -10 12 0 25 -4 28 -10 9 -15
47 -12 71 5 12 8 24 11 28 8 3 -3 6 -2 6 4 0 10 26 20 80 29 14 3 41 10 60 16
34 12 41 13 68 16 6 1 12 9 12 17 0 8 5 15 10 15 6 0 14 10 19 23 5 13 18 23
31 24 25 2 74 -30 63 -41 -4 -3 1 -12 10 -19 17 -12 30 -80 30 -154 0 -24 4
-43 10 -43 5 0 4 -6 -2 -14 -8 -10 -9 -16 -1 -21 5 -3 10 -11 10 -17 0 -6 -3
-8 -7 -5 -7 7 -32 -22 -33 -37 0 -6 6 -1 14 10 12 16 12 11 -1 -28 -8 -26 -19
-45 -24 -42 -5 3 -6 -1 -3 -9 3 -8 0 -18 -7 -23 -7 -4 -10 -3 -6 2 3 6 2 16
-4 24 -7 13 -9 13 -10 0 -1 -8 -4 1 -8 20 -5 27 -11 35 -26 34 -42 -3 -65 -11
-84 -28 -20 -18 -59 -21 -217 -17 -12 1 -42 19 -67 41 -36 32 -53 40 -84 40
-21 0 -50 6 -65 14 -26 14 -28 13 -52 -19 -24 -31 -52 -42 -121 -50 -40 -5
-105 49 -105 87 0 10 -6 21 -14 24 -18 7 -8 52 15 65 11 5 24 7 29 4 5 -3 11
-1 15 5 4 6 10 8 14 6 4 -3 13 -1 21 5 13 7 12 9 -2 9 -10 0 -21 0 -24 -1 -4
0 -11 5 -16 13 -6 10 -14 7 -32 -14 -14 -15 -26 -24 -29 -20 -2 4 -3 2 -1 -5
5 -22 -9 -22 -31 1 -20 22 -22 22 -33 6 -6 -10 -8 -27 -6 -37 4 -15 -3 -24
-30 -37 -35 -17 -112 -45 -121 -45 -11 0 -37 -18 -36 -24 1 -4 1 -8 0 -9 0 -2
-2 -11 -5 -20 -9 -39 -9 -39 -45 -129 -17 -43 -106 -71 -150 -49 -38 20 -68
62 -69 96 0 33 48 115 82 138 11 8 18 22 16 31 -4 19 1 18 -65 9 -55 -7 -88
-32 -114 -88 -17 -36 -55 -49 -126 -41 l-53 5 0 -740 0 -740 6015 0 6015 0 0
144 c0 82 -4 147 -10 151 -6 4 -6 15 0 31 6 14 8 29 6 33 -3 4 -6 31 -7 59 -2
32 -7 51 -13 49 -6 -3 -20 3 -30 12 -16 13 -18 13 -11 1 5 -8 -3 -3 -18 13
-27 28 -44 36 -31 15 9 -14 -13 1 -61 41 -16 15 -23 18 -16 9 13 -17 11 -17
-25 -5 -22 7 -46 13 -54 12 -8 -1 -27 7 -41 17 -14 9 -29 15 -32 12 -3 -3 -12
-2 -19 2 -7 5 -18 9 -24 10 -28 4 -86 39 -114 68 -17 17 -35 32 -41 32 -5 1
-12 2 -15 3 -3 0 2 8 10 17 23 22 20 32 -8 27 -17 -4 -33 3 -53 21 -28 26 -53
34 -53 17 0 -14 -31 -22 -45 -11 -6 5 -16 6 -21 2 -4 -4 -2 1 5 11 10 13 16
14 21 6 5 -7 10 -8 14 -1 11 19 -26 22 -55 5 -24 -15 -31 -15 -38 -5 -5 8 -11
13 -15 12 -3 -1 -25 2 -49 6 -23 3 -53 8 -67 9 -38 4 -53 9 -67 22 -7 6 -24
10 -38 9 -13 -2 -22 0 -20 5 3 4 1 10 -5 14 -5 3 -10 1 -10 -5 0 -6 -5 -8 -12
-3 -7 4 -24 8 -38 10 -14 1 -38 4 -55 7 -16 2 -38 4 -47 5 -9 1 -23 7 -30 14
-7 6 -25 12 -40 11 -15 -1 -26 3 -25 9 3 15 -71 16 -77 2 -2 -7 -15 -12 -28
-11 -13 1 -29 -4 -36 -11 -8 -7 -17 -11 -22 -8 -4 3 -10 -13 -12 -34 -2 -22
-1 -38 3 -36 3 3 12 -7 19 -20 7 -13 17 -22 21 -19 4 2 10 0 14 -6 5 -9 -15
-15 -38 -11 -4 1 -2 -8 5 -18 15 -24 58 -34 58 -14 0 8 -5 11 -10 8 -6 -3 -10
-1 -10 5 0 15 52 1 68 -19 11 -13 12 -13 7 -1 -4 10 -2 9 8 -2 8 -10 24 -18
35 -18 11 0 24 -5 27 -10 3 -6 24 -10 45 -10 38 0 110 -33 110 -51 0 -13 -37
-11 -46 2 -5 8 -9 8 -14 -1 -9 -14 -119 -15 -133 -1 -6 6 -29 11 -50 11 -30 0
-48 8 -80 35 -43 37 -61 43 -73 23 -5 -8 0 -9 14 -6 33 9 36 -8 4 -21 -22 -9
-34 -9 -56 2 -32 17 -79 11 -54 -7 8 -6 13 -17 11 -23 -6 -16 -33 -17 -33 -2
0 6 -9 8 -21 4 -30 -10 -69 -13 -69 -6 0 5 -34 6 -72 2 -5 -1 -8 -8 -8 -16 0
-14 -3 -13 -25 1 -24 15 -27 15 -38 1 -12 -17 -32 -18 -54 -4 -25 16 -13 29
18 22 29 -7 30 -6 20 14 -7 12 -17 21 -24 21 -17 -1 -42 -22 -50 -42 -7 -19
-27 -25 -27 -8 0 7 -6 7 -19 0 -11 -5 -27 -10 -36 -10 -13 0 -14 4 -5 20 8 14
8 20 0 20 -6 0 -13 -7 -16 -15 -4 -8 -10 -12 -15 -9 -14 8 -11 52 4 57 6 2 8
8 4 13 -4 5 -12 2 -17 -5 -4 -8 -15 -11 -24 -8 -8 3 -18 2 -22 -4 -8 -13 -46
-1 -61 20 -10 14 -15 13 -45 -15 -59 -54 -137 -72 -164 -36 -13 16 -15 16 -29
-2 -12 -16 -20 -17 -47 -9 -18 5 -32 15 -30 21 3 19 -12 14 -25 -7 -14 -23
-69 -33 -84 -15 -6 7 -8 17 -6 22 10 14 -9 33 -26 26 -18 -7 -23 -24 -7 -24 6
0 10 -9 10 -20 0 -13 -7 -20 -19 -20 -11 0 -26 -3 -34 -6 -9 -3 -28 7 -45 24
-18 17 -35 26 -42 22 -9 -5 -9 -9 -1 -14 26 -16 -6 -26 -85 -26 -66 0 -86 3
-90 15 -4 8 -14 15 -24 15 -11 0 -22 4 -25 10 -9 15 -23 12 -42 -10 -18 -21
-43 -27 -43 -10 0 6 7 10 15 10 8 0 15 5 15 10 0 6 -14 10 -31 10 -17 0 -28 4
-24 10 3 6 -1 7 -10 4 -25 -10 -47 14 -34 38 8 15 8 19 0 13 -7 -4 -23 1 -37
10 -31 20 -42 14 -19 -9 23 -23 13 -43 -27 -49 -32 -4 -58 10 -67 38 -12 37
-15 39 -21 15 -4 -17 -12 -24 -26 -22 -38 5 -51 3 -178 -28 -71 -16 -138 -28
-148 -25 -11 4 -31 -4 -50 -19 -18 -13 -47 -30 -63 -37 -23 -9 -26 -13 -13
-16 10 -3 18 -9 18 -14 0 -14 -38 -11 -43 3 -3 7 -6 3 -6 -10 -1 -12 6 -25 14
-28 18 -7 21 -64 3 -64 -6 0 -36 12 -67 26 -72 34 -191 39 -295 12 -95 -25
-143 -25 -193 -1 -29 14 -45 17 -52 10 -6 -6 -23 -11 -38 -12 -61 -5 -117 -16
-190 -41 -61 -20 -88 -25 -126 -20 -65 9 -117 -17 -190 -94 -31 -32 -70 -66
-86 -75 -37 -18 -51 -43 -51 -87 -1 -43 -35 -118 -55 -118 -8 0 -15 -4 -15
-10 0 -16 -62 -12 -80 5 -9 8 -37 25 -61 38 -98 49 -212 150 -193 170 3 3 2
11 -2 18 -10 17 -12 59 -3 65 4 2 -7 20 -24 39 -27 29 -39 35 -72 34 -22 0
-56 3 -75 8 -23 6 -49 5 -75 -2 -22 -6 -51 -10 -65 -9 -14 1 -52 3 -85 4 -33
2 -74 8 -90 15 -17 7 -39 9 -50 5 -11 -4 -38 -5 -60 -4 -133 12 -165 11 -220
-4 -56 -14 -63 -14 -97 2 -30 15 -49 17 -100 10 -35 -4 -72 -8 -84 -8 -25 -1
-74 -26 -74 -37 0 -16 -59 -39 -100 -39 -44 0 -68 18 -95 71 l-17 32 -82 -5
c-46 -3 -93 -11 -105 -18 -13 -6 -49 -15 -81 -20 -31 -4 -84 -21 -116 -36 -43
-21 -78 -29 -129 -32 -62 -3 -74 -1 -105 22 -31 22 -92 54 -105 56 -3 0 -13 8
-23 18 -37 35 -72 62 -81 62 -5 0 -11 6 -14 14 -6 16 -75 39 -89 30 -4 -3 -8
-1 -8 5 0 13 -49 23 -124 25 -34 1 -68 6 -76 11 -16 10 -36 16 -62 18 -9 1
-14 5 -12 9 3 4 -14 8 -38 9 -81 1 -127 8 -157 23 -17 9 -37 16 -47 16 -19 0
-106 85 -96 95 4 3 -7 3 -23 0 -131 -30 -177 -30 -207 -2 -43 39 -59 48 -106
57 -28 5 -68 20 -89 33 -25 16 -60 26 -101 30 -37 3 -71 12 -81 21 -10 9 -23
16 -29 16 -7 0 -12 5 -12 11 0 5 -4 8 -9 4 -5 -3 -12 -1 -16 5 -3 5 -27 10
-52 10 -28 0 -66 10 -98 25 -53 24 -135 48 -135 37 0 -3 -8 2 -17 10 -20 16
-60 18 -82 4 -9 -6 -12 -5 -8 1 4 6 -2 13 -13 16 -11 3 -20 0 -20 -6 0 -7 -4
-5 -10 3 -7 11 -12 12 -21 3 -6 -6 -18 -9 -25 -6 -10 4 -12 0 -8 -11 3 -9 2
-16 -3 -16 -11 0 -35 -48 -29 -58 6 -11 -21 -32 -30 -24 -5 4 -2 -2 6 -12 13
-18 13 -19 -2 -14 -10 5 -18 0 -21 -12 -3 -14 0 -17 12 -13 14 4 14 3 -1 -10
-10 -8 -16 -16 -13 -18 2 -3 -5 -5 -15 -6 -12 -1 -20 5 -21 15 0 11 -3 12 -6
5 -2 -7 -9 -13 -14 -13 -6 0 -7 5 -4 10 3 6 -1 10 -9 10 -17 0 -21 12 -9 24
12 12 10 68 -3 73 -10 3 -12 30 -4 41 7 7 5 29 -3 40 -6 7 -6 12 0 12 6 0 7
18 1 48 -4 26 -10 57 -12 70 -8 52 28 85 105 94 31 3 109 -30 109 -47 0 -6 12
-18 28 -26 15 -8 30 -19 35 -26 4 -7 33 -11 75 -11 37 0 79 -5 94 -10 20 -8
28 -8 31 1 3 9 8 9 20 -1 9 -8 20 -11 24 -9 15 10 321 -72 391 -104 24 -11 67
-22 96 -24 51 -4 126 -37 126 -56 0 -5 33 -9 74 -9 71 0 76 -2 111 -35 30 -28
36 -39 31 -60 -10 -41 15 -60 64 -47 29 7 44 6 56 -2 12 -9 29 -9 64 -2 53 11
117 -2 145 -30 8 -8 15 -12 15 -8 0 3 8 0 17 -7 11 -10 14 -10 9 -1 -4 6 -2
12 3 12 6 0 11 -4 11 -8 0 -5 6 -9 13 -10 86 -9 149 -21 180 -35 39 -17 150
-27 162 -15 9 8 85 -73 79 -83 -6 -11 52 -2 77 11 14 8 19 18 16 31 -3 13 -1
17 6 12 13 -8 47 -12 47 -6 0 2 -13 9 -30 14 -17 6 -27 16 -23 22 4 7 0 8 -11
4 -14 -5 -17 -3 -12 8 4 11 -1 15 -17 15 -22 1 -22 1 -2 16 19 14 19 15 -5 12
-14 -2 -31 -10 -38 -18 -8 -8 -11 -9 -7 -2 3 6 0 13 -7 13 -7 1 -17 2 -23 4
-5 1 -18 3 -28 3 -10 1 -16 6 -12 11 3 6 -5 8 -19 5 -15 -2 -26 1 -30 12 -3 8
-11 12 -17 8 -7 -4 -9 -3 -5 4 3 6 -3 17 -14 25 -11 7 -17 17 -13 20 6 7 -12
11 -31 8 -5 -1 -16 4 -25 12 -23 19 -108 36 -164 32 -52 -3 -113 10 -137 29
-16 13 -85 35 -135 43 -16 3 -34 8 -40 12 -5 4 -17 7 -25 6 -8 -1 -26 4 -40
11 -14 6 -42 14 -64 18 -21 4 -50 12 -65 18 -14 6 -29 12 -33 13 -5 2 -9 4
-10 5 -2 1 -12 4 -23 5 -82 11 -135 29 -135 46 0 7 -3 10 -6 6 -3 -3 -16 4
-28 17 -11 12 -28 21 -36 21 -8 -1 -22 4 -30 11 -8 6 -39 17 -69 23 -54 11
-101 47 -101 75 0 20 -25 37 -62 42 -18 3 -44 9 -58 13 -24 8 -136 6 -215 -3
-83 -10 -142 -9 -165 4 -14 7 -27 13 -30 12 -12 -4 -45 12 -64 30 -12 10 -29
17 -39 14 -16 -4 -16 -2 -5 12 7 9 9 14 4 10 -4 -4 -24 2 -44 12 -21 10 -67
26 -104 35 -36 10 -75 25 -86 35 -11 11 -22 17 -24 14 -4 -4 -7 6 -9 39 0 6 5
35 13 62 7 28 13 62 11 76 -1 23 -59 130 -73 136 -3 2 -3 28 -1 59 3 50 1 56
-14 51 -9 -4 -14 -3 -10 2 3 5 -17 17 -44 26 -55 18 -142 17 -178 -3 -13 -7
-23 -10 -23 -6 0 3 -8 0 -17 -7 -14 -12 -16 -12 -8 0 6 10 4 12 -4 7 -32 -20
-142 -26 -162 -9 -13 11 -16 11 -16 -2 0 -8 5 -11 10 -8 6 3 7 1 3 -6 -5 -8
-12 -9 -20 -2 -7 6 -18 6 -26 1 -7 -4 -24 -4 -36 0 -15 6 -26 5 -30 -2 -4 -7
-10 -4 -17 7 -9 17 -11 16 -28 -6 -17 -22 -18 -23 -13 -3 6 24 -10 41 -22 23
-4 -8 -3 -9 4 -5 7 4 12 3 12 -2 0 -6 -7 -13 -16 -16 -8 -3 -12 -2 -9 4 3 6 1
10 -5 10 -6 0 -8 5 -4 12 5 7 2 10 -7 7 -8 -3 -25 6 -39 20 -14 13 -19 21 -12
16 11 -6 12 -3 4 12 -7 12 -20 18 -39 17 -15 -1 -39 5 -52 13 -18 12 -22 12
-15 2 6 -11 5 -12 -7 -3 -20 15 -82 18 -73 3 4 -8 3 -9 -5 -5 -6 4 -9 12 -6
17 5 8 -27 13 -40 7 -2 -2 -11 6 -20 17 -9 11 -13 13 -9 5 7 -13 5 -13 -9 -1
-9 7 -17 10 -17 5 0 -5 -5 -1 -11 9 -5 9 -14 17 -18 17 -5 0 -23 14 -41 30
-18 17 -43 33 -56 36 -13 3 -24 10 -24 16 0 9 -61 38 -88 42 -8 2 -17 7 -20
12 -4 5 -20 10 -37 12 -16 2 -40 10 -52 18 -12 7 -30 11 -39 7 -10 -4 -15 -2
-11 3 3 5 -3 10 -13 10 -10 0 -16 -5 -12 -11z m82 -625 c0 -5 -5 -10 -11 -10
-5 0 -7 5 -4 10 3 6 8 10 11 10 2 0 4 -4 4 -10z m954 -236 c3 -8 2 -12 -4 -9
-6 3 -10 10 -10 16 0 14 7 11 14 -7z m8911 -632 c-3 -3 -11 0 -18 7 -9 10 -8
11 6 5 10 -3 15 -9 12 -12z m-765 -106 c0 -11 -19 -15 -25 -6 -3 5 1 10 9 10
9 0 16 -2 16 -4z m1271 -11 c5 4 6 0 3 -8 -4 -11 2 -14 25 -12 19 2 28 -1 24
-8 -4 -6 2 -8 16 -4 26 6 39 -16 22 -37 -8 -10 -21 -12 -46 -6 -25 6 -33 5
-28 -4 3 -6 1 -6 -8 2 -15 14 -33 16 -25 3 3 -4 -6 -6 -19 -3 -14 2 -25 10
-25 17 0 7 -6 13 -12 12 -77 -3 -81 8 -17 42 23 12 41 15 57 9 13 -4 28 -6 33
-3z m-1411 -75 c8 -5 11 -12 8 -16 -10 -9 -38 3 -38 16 0 12 10 13 30 0z
m1000 0 c0 -5 -4 -10 -9 -10 -6 0 -13 5 -16 10 -3 6 1 10 9 10 9 0 16 -4 16
-10z m-2385 -20 c3 -5 1 -10 -4 -10 -6 0 -11 5 -11 10 0 6 2 10 4 10 3 0 8 -4
11 -10z m166 -28 c4 -4 10 -17 13 -29 6 -19 2 -22 -41 -29 -26 -5 -82 -8 -123
-9 -63 0 -75 3 -78 18 -3 12 3 17 22 17 14 0 28 5 31 10 3 6 21 10 40 10 21 0
35 6 39 16 5 13 15 15 49 10 23 -4 45 -10 48 -14z m2649 -8 c0 -8 -5 -12 -10
-9 -6 4 -8 11 -5 16 9 14 15 11 15 -7z m-2573 -10 c7 -18 -17 -38 -31 -24 -11
11 -1 40 14 40 6 0 13 -7 17 -16z m43 -9 c0 -8 -7 -15 -16 -15 -14 0 -14 3 -4
15 7 8 14 15 16 15 2 0 4 -7 4 -15z m2506 -5 c19 0 18 -39 -1 -46 -8 -4 -15
-14 -15 -23 0 -9 -9 -27 -19 -39 -15 -20 -20 -22 -32 -10 -18 17 -39 21 -39 8
0 -16 -26 -11 -54 11 -35 28 -34 49 4 49 29 0 57 29 42 45 -4 4 10 4 31 0 26
-5 37 -4 37 5 0 7 7 10 16 6 9 -3 22 -6 30 -6z m-1362 -107 c4 -4 17 -8 29 -8
12 -1 41 -2 64 -3 31 -2 43 -7 48 -21 3 -10 16 -22 29 -25 13 -3 27 -13 30
-22 5 -14 2 -15 -21 -8 -16 4 -37 7 -48 7 -40 -2 -161 -13 -188 -18 -29 -5
-67 23 -67 49 0 21 23 36 40 26 25 -16 52 -11 57 10 6 21 15 25 27 13z m1193
-23 c28 -32 79 -41 89 -16 7 17 51 18 58 0 8 -20 66 -15 66 7 0 18 3 18 177
33 25 2 57 -4 81 -14 22 -10 44 -14 48 -10 16 15 48 13 84 -3 19 -8 39 -12 45
-9 5 3 22 5 37 4 15 -1 28 2 28 8 0 18 28 11 33 -9 4 -16 12 -19 57 -16 54 4
100 -7 100 -25 0 -5 -9 -10 -20 -10 -11 0 -20 -4 -20 -8 0 -19 25 -30 55 -25
19 3 35 0 39 -6 10 -16 26 -14 26 4 0 21 30 18 59 -6 13 -11 22 -21 20 -22 -2
-1 -38 -25 -79 -53 -114 -77 -152 -87 -320 -85 -94 1 -107 4 -123 23 -10 11
-16 26 -14 31 5 16 -38 57 -61 57 -11 0 -24 5 -27 10 -3 6 -19 10 -34 10 -16
0 -34 6 -40 14 -7 9 -42 17 -86 21 -47 5 -73 11 -72 19 1 6 -13 12 -30 14 -25
2 -33 -1 -33 -12 0 -10 -9 -16 -22 -17 -13 0 -49 -3 -80 -5 -50 -4 -59 -1 -68
16 -6 11 -19 20 -30 20 -10 0 -22 5 -25 10 -4 6 -13 7 -23 1 -15 -8 -217 -6
-297 3 -16 2 -45 4 -63 5 -18 0 -31 5 -27 10 3 6 46 7 100 4 92 -5 95 -5 95
16 0 12 6 21 15 21 8 0 15 -4 15 -9 0 -5 7 -12 16 -15 12 -4 15 -2 10 9 -3 9
0 15 9 15 8 0 15 -4 15 -8 0 -13 48 -33 55 -22 5 9 52 8 70 -1 9 -5 16 -5 53
-1 6 1 12 7 12 12 0 6 -6 10 -12 9 -35 -4 -43 2 -24 16 27 20 32 19 63 -15z
m-1654 13 c4 -3 26 -7 50 -7 38 -1 42 -3 40 -24 -2 -12 4 -25 12 -28 21 -8 85
15 85 32 0 18 44 29 66 16 13 -7 22 -6 32 4 19 20 32 8 32 -27 0 -17 4 -28 9
-24 14 8 19 -26 8 -52 -5 -12 -15 -20 -21 -18 -6 3 -56 7 -111 9 -55 3 -113 8
-130 11 -28 5 -95 12 -139 14 -15 1 -16 4 -7 15 10 11 3 16 -39 27 -65 17 -65
41 0 50 67 9 106 10 113 2z m174 -19 c-3 -3 -12 -4 -19 -1 -8 3 -5 6 6 6 11 1
17 -2 13 -5z m938 -20 l40 -13 -37 -1 c-39 0 -78 -24 -78 -47 0 -7 5 -13 12
-13 6 0 9 -2 7 -5 -3 -2 -53 -7 -111 -11 -86 -5 -108 -3 -114 8 -5 8 -18 18
-28 21 -16 6 -17 5 -6 -8 11 -13 9 -15 -13 -15 -19 0 -25 4 -21 15 4 10 0 15
-15 15 -25 0 -26 6 -4 28 17 17 32 20 114 22 25 1 66 7 90 14 48 15 102 11
164 -10z m-1270 -14 c18 -19 17 -20 -1 -20 -20 0 -44 17 -44 32 0 15 27 8 45
-12z m1275 -42 c0 16 27 15 33 0 3 -10 9 -10 23 -3 11 6 35 12 54 13 28 2 39
-3 54 -24 l18 -26 -98 7 c-73 6 -102 11 -111 24 -20 25 -15 36 7 16 11 -10 20
-13 20 -7z m1510 18 c0 -3 -4 -8 -10 -11 -5 -3 -10 -1 -10 4 0 6 5 11 10 11 6
0 10 -2 10 -4z m-1992 -33 c-3 -16 -14 -18 -87 -15 -47 1 -86 4 -89 6 -14 14
17 22 93 24 78 2 86 0 83 -15z m882 -3 c0 -5 -2 -10 -4 -10 -3 0 -8 5 -11 10
-3 6 -1 10 4 10 6 0 11 -4 11 -10z"/>
<path d="M11296 378 c-10 -6 -28 -8 -42 -5 -13 2 -21 0 -18 -4 3 -5 17 -9 31
-9 13 0 38 -9 55 -21 16 -12 32 -18 36 -15 3 4 0 11 -7 16 -8 4 -11 15 -8 23
7 19 -23 28 -47 15z"/>
<path d="M11380 380 c0 -5 5 -10 11 -10 5 0 7 5 4 10 -3 6 -8 10 -11 10 -2 0
-4 -4 -4 -10z"/>
<path d="M11420 376 c0 -2 7 -6 15 -10 8 -3 15 -1 15 4 0 6 -7 10 -15 10 -8 0
-15 -2 -15 -4z"/>
<path d="M11205 360 c-3 -5 -1 -10 4 -10 6 0 11 5 11 10 0 6 -2 10 -4 10 -3 0
-8 -4 -11 -10z"/>
<path d="M11368 353 c7 -3 16 -2 19 1 4 3 -2 6 -13 5 -11 0 -14 -3 -6 -6z"/>
<path d="M11606 331 c-4 -6 -2 -11 4 -11 6 0 8 -6 4 -12 -6 -10 -4 -10 7 0 9
9 10 15 2 23 -8 8 -13 8 -17 0z"/>
<path d="M11647 333 c-14 -13 -6 -23 18 -23 20 0 25 -5 26 -27 2 -28 2 -28 6
-3 3 14 11 29 19 33 26 15 14 27 -24 27 -21 0 -42 -3 -45 -7z"/>
<path d="M11379 313 c0 -5 -2 -16 -4 -25 -4 -20 15 -24 33 -6 8 8 9 15 1 25
-12 14 -29 17 -30 6z"/>
<path d="M11507 214 c7 -18 42 -34 61 -27 19 8 14 23 -9 23 -11 0 -29 5 -39
10 -16 9 -18 8 -13 -6z"/>
<path d="M9430 336 c0 -2 7 -7 16 -10 8 -3 12 -2 9 4 -6 10 -25 14 -25 6z"/>
<path d="M10166 333 c-3 -3 -3 -10 0 -14 7 -12 34 -11 34 0 0 11 -26 22 -34
14z"/>
<path d="M10286 331 c-4 -7 -5 -15 -2 -18 9 -9 19 4 14 18 -4 11 -6 11 -12 0z"/>
<path d="M3436 2249 c12 -13 20 -16 22 -9 3 7 -2 16 -9 21 -25 16 -32 9 -13
-12z"/>
<path d="M3475 2250 c3 -5 8 -10 11 -10 2 0 4 5 4 10 0 6 -5 10 -11 10 -5 0
-7 -4 -4 -10z"/>
<path d="M7464 2188 c-7 -10 43 -21 61 -14 8 3 15 9 15 13 0 10 -70 11 -76 1z"/>
<path d="M7210 2159 c0 -5 5 -7 10 -4 6 3 10 8 10 11 0 2 -4 4 -10 4 -5 0 -10
-5 -10 -11z"/>
<path d="M2783 2089 c-6 -6 -17 -11 -24 -12 -8 -2 -20 -6 -26 -10 -7 -5 -17
-6 -21 -3 -5 3 -24 -8 -43 -24 -19 -16 -29 -30 -24 -31 44 -5 87 -5 91 2 3 5
24 14 47 20 41 11 66 32 67 57 0 6 -5 12 -11 12 -5 0 -8 -4 -4 -9 3 -5 1 -12
-5 -16 -5 -3 -10 -2 -10 3 0 15 -26 22 -37 11z"/>
<path d="M2990 2090 c0 -6 7 -10 15 -10 8 0 15 2 15 4 0 2 -7 6 -15 10 -8 3
-15 1 -15 -4z"/>
<path d="M3355 1898 c-12 -7 -55 -11 -108 -10 -49 1 -105 -2 -126 -7 -20 -4
-47 -4 -60 1 -22 8 -23 7 -16 -29 3 -21 16 -48 28 -61 20 -22 22 -22 28 -4 10
28 45 33 71 12 23 -18 23 -18 4 -39 -11 -12 -27 -19 -35 -16 -9 3 -7 -3 6 -14
12 -10 27 -38 32 -61 5 -23 12 -44 14 -47 9 -8 -23 -105 -49 -149 -34 -59 -32
-73 16 -80 60 -10 96 -58 92 -123 -1 -17 29 -42 40 -35 5 3 8 0 8 -7 0 -8 4
-8 15 1 17 14 77 23 140 21 60 -1 83 7 91 32 12 36 13 46 4 77 -5 16 -6 38 -3
48 7 27 79 70 130 78 55 8 266 -21 311 -43 32 -16 33 -16 65 15 26 25 42 32
73 32 21 0 55 5 74 11 19 5 46 12 60 15 14 3 39 9 55 14 17 4 52 11 78 15 55
7 134 40 119 49 -20 12 -158 38 -197 36 -22 0 -44 -1 -50 -1 -5 0 -22 2 -38 5
-17 4 -36 0 -52 -10 -15 -10 -25 -12 -25 -5 0 6 8 11 18 12 13 0 12 2 -5 9
-25 10 -29 20 -13 36 11 11 -93 49 -109 40 -5 -3 -14 1 -21 10 -7 8 -19 13
-27 10 -8 -3 -11 -1 -8 4 3 6 -5 10 -19 10 -14 0 -27 4 -30 8 -6 10 -32 8 -59
-3 -43 -18 -152 13 -207 60 -8 7 -31 15 -51 19 -21 4 -48 15 -60 24 -24 18
-134 52 -166 52 -10 0 -27 -6 -38 -12z m-25 -160 c0 -4 16 -8 35 -8 19 0 35
-4 35 -9 0 -5 14 -12 30 -16 17 -4 30 -11 30 -16 0 -16 -43 -27 -68 -18 -13 5
-37 9 -53 9 -18 0 -32 6 -36 16 -4 10 -14 13 -32 10 -33 -8 -50 4 -57 38 -7
40 29 50 79 23 20 -11 37 -24 37 -29z m638 -10 c-3 -7 -13 -15 -24 -17 -16 -3
-17 -1 -5 13 16 19 34 21 29 4z m182 -158 c0 -5 -4 -10 -9 -10 -6 0 -13 5 -16
10 -3 6 1 10 9 10 9 0 16 -4 16 -10z"/>
<path d="M708 1862 c-11 -13 -10 -15 2 -8 8 4 6 1 -4 -8 -10 -8 -22 -14 -25
-12 -3 2 -7 -8 -8 -22 -1 -29 14 -55 28 -46 5 3 9 0 9 -6 0 -7 7 -7 23 2 12 7
30 11 40 9 10 -1 25 3 33 9 15 13 20 55 5 46 -5 -3 -12 1 -15 10 -3 9 -13 14
-21 11 -9 -4 -12 -1 -9 7 8 20 -43 27 -58 8z"/>
<path d="M10130 1870 c-11 -7 -12 -12 -4 -20 8 -8 14 -7 23 4 14 17 1 28 -19
16z"/>
<path d="M1082 1745 c12 -13 -12 -34 -30 -28 -9 3 -14 3 -10 -2 4 -4 3 -16 -3
-26 -7 -15 -6 -19 5 -19 10 0 13 6 9 17 -4 9 -2 14 3 11 5 -3 17 5 27 17 13
18 14 25 5 31 -7 4 -10 4 -6 -1z"/>
<path d="M4740 1724 c-14 -7 -25 -18 -24 -24 3 -27 5 -30 23 -30 11 0 23 -5
26 -10 5 -9 78 -9 124 -1 2 1 -2 7 -8 15 -7 8 -19 12 -29 9 -12 -3 -21 5 -29
26 -13 35 -39 39 -83 15z"/>
<path d="M715 1709 c-4 -6 -5 -12 -2 -15 2 -3 7 2 10 11 7 17 1 20 -8 4z"/>
<path d="M1013 1705 c0 -8 4 -12 9 -9 4 3 8 9 8 15 0 5 -4 9 -8 9 -5 0 -9 -7
-9 -15z"/>
<path d="M1680 1661 c0 -6 4 -13 10 -16 6 -3 7 1 4 9 -7 18 -14 21 -14 7z"/>
<path d="M8486 1431 c9 -9 34 -9 34 -1 0 5 -9 8 -20 7 -10 -1 -17 -3 -14 -6z"/>
<path d="M8626 1431 c-4 -6 -19 -9 -34 -6 l-26 4 31 -31 c30 -30 35 -31 123
-34 91 -2 92 -2 126 -38 34 -36 65 -45 94 -26 8 5 11 12 7 16 -4 4 -2 13 4 20
17 21 -40 51 -131 68 -87 16 -115 21 -161 32 -15 3 -30 1 -33 -5z"/>
<path d="M8466 1412 c-3 -5 1 -9 9 -9 8 0 12 4 9 9 -3 4 -7 8 -9 8 -2 0 -6 -4
-9 -8z"/>
<path d="M9115 1286 c-23 -6 -54 -21 -69 -33 -16 -13 -35 -23 -43 -23 -7 0
-16 -7 -19 -15 -4 -8 -12 -15 -20 -15 -8 0 -14 -6 -14 -12 -1 -31 -100 -68
-222 -83 -14 -1 -48 -10 -75 -18 -26 -9 -61 -18 -78 -21 -29 -4 -112 -21 -200
-40 -5 -1 -25 -12 -43 -23 -19 -12 -55 -27 -80 -34 -26 -7 -57 -19 -69 -27
-13 -8 -23 -11 -23 -8 0 6 -11 -2 -44 -31 -8 -7 -16 -10 -19 -7 -11 11 -149
10 -165 -2 -30 -21 -146 -63 -172 -63 -14 1 -46 5 -72 11 -40 8 -54 7 -90 -10
-53 -25 -108 -35 -127 -23 -16 10 -68 -4 -93 -27 -11 -9 -18 -11 -18 -4 0 6
-7 9 -15 6 -8 -4 -12 -10 -9 -15 3 -5 -2 -9 -10 -9 -9 0 -16 4 -16 10 0 5 -7
7 -15 4 -46 -18 9 -81 71 -83 22 0 56 -7 75 -15 23 -9 40 -11 50 -5 26 16 102
4 146 -24 6 -4 31 2 56 12 25 11 48 17 51 14 3 -4 6 -1 6 6 0 34 84 74 129 61
33 -9 54 -6 98 15 19 9 65 27 101 40 60 21 69 22 111 9 86 -25 118 -26 165 -6
24 11 70 28 103 37 32 9 66 24 76 33 14 13 41 17 111 18 64 1 101 6 122 17
109 60 156 79 182 72 70 -17 87 -17 111 4 14 12 36 24 50 28 14 3 39 15 55 27
17 11 41 21 55 23 92 8 125 23 168 72 20 23 30 26 95 26 40 0 78 -5 83 -10 21
-21 55 -75 55 -85 0 -6 4 -9 9 -6 5 3 24 -1 44 -9 19 -8 45 -16 58 -19 13 -3
38 -9 54 -14 17 -5 53 -9 82 -8 43 1 50 -1 40 -13 -10 -12 -9 -14 6 -8 9 3 17
2 17 -4 0 -6 5 -7 10 -4 6 3 10 2 10 -3 0 -9 55 -26 73 -23 4 1 10 -6 14 -15
4 -12 8 -13 14 -3 5 9 11 10 21 2 7 -5 28 -9 46 -8 17 1 32 -3 32 -8 0 -5 6
-4 14 2 8 7 17 8 20 3 4 -7 34 -8 94 -3 6 1 12 10 12 22 0 11 4 18 9 14 5 -3
12 -1 16 5 6 10 -46 70 -62 70 -6 0 -16 7 -23 15 -7 9 -15 13 -17 11 -3 -3
-20 4 -39 15 -19 10 -41 19 -50 19 -8 0 -12 5 -9 10 5 9 -15 15 -37 11 -5 0
-8 3 -8 7 0 5 -6 9 -12 10 -7 1 -31 4 -53 8 -22 3 -52 7 -67 7 -14 1 -24 5
-22 8 6 10 -22 30 -30 22 -13 -14 -35 -11 -29 3 3 8 2 14 -3 13 -31 -5 -65 2
-59 14 4 6 0 4 -8 -6 -11 -14 -17 -15 -25 -5 -7 8 -35 13 -79 12 -37 0 -74 4
-82 10 -12 9 -13 8 -6 -4 7 -12 6 -13 -6 -3 -9 7 -33 15 -55 19 -45 7 -54 9
-74 16 -28 10 -144 30 -196 34 -28 2 -64 8 -78 14 -15 5 -28 9 -29 9 -1 -1
-20 -7 -42 -13z m1189 -312 c3 -8 2 -12 -4 -9 -6 3 -10 10 -10 16 0 14 7 11
14 -7z m-24 -38 c0 -2 -7 -7 -16 -10 -8 -3 -12 -2 -9 4 6 10 25 14 25 6z"/>
<path d="M3254 1225 c3 -20 16 -32 16 -14 0 11 2 11 10 -1 6 -9 10 -10 10 -3
0 7 -9 17 -19 23 -15 7 -19 7 -17 -5z"/>
<path d="M9927 1183 c-10 -9 -9 -23 1 -23 5 0 9 7 9 15 0 17 -1 18 -10 8z"/>
<path d="M5916 995 c-3 -8 -17 -15 -31 -15 -20 0 -25 -5 -25 -25 0 -31 29 -47
92 -51 34 -2 54 3 69 15 23 18 19 41 -7 41 -8 0 -14 7 -14 15 0 30 -73 48 -84
20z"/>
<path d="M11625 966 c-65 -31 -125 -77 -125 -97 0 -5 4 -17 9 -27 5 -9 12 -25
15 -34 8 -26 46 -22 110 11 42 22 65 28 93 25 30 -4 41 0 54 17 9 12 28 23 42
24 38 4 46 12 45 46 -1 35 -31 57 -53 39 -8 -7 -20 -10 -27 -7 -7 2 -20 -2
-29 -10 -15 -13 -18 -11 -30 16 -8 17 -18 31 -24 30 -5 0 -41 -15 -80 -33z"/>
<path d="M10531 885 c1 -19 18 -51 18 -35 0 8 -4 22 -9 30 -5 8 -9 11 -9 5z"/>
<path d="M11445 840 c3 -5 13 -10 21 -10 8 0 12 5 9 10 -3 6 -13 10 -21 10 -8
0 -12 -4 -9 -10z"/>
<path d="M4762 790 c-46 -15 -85 -28 -87 -29 -3 0 -9 -1 -14 -1 -5 0 -8 -8 -7
-17 1 -13 -6 -18 -26 -17 -16 1 -28 -3 -28 -7 0 -5 3 -9 8 -10 4 -1 21 -3 37
-6 17 -2 57 -4 90 -4 33 0 74 -4 90 -9 17 -5 89 -12 160 -15 155 -6 222 -12
236 -21 5 -3 16 0 24 6 10 9 15 9 15 1 0 -7 8 -8 27 0 15 5 50 9 77 9 28 -1
79 -1 113 0 34 0 71 -4 81 -9 11 -6 22 -7 26 -4 3 3 6 2 6 -4 0 -6 14 -8 38
-4 20 4 75 1 122 -6 113 -18 167 -22 350 -26 115 -3 165 -8 194 -21 29 -12 47
-14 72 -7 21 6 47 6 69 0 19 -6 40 -7 45 -4 6 3 10 0 10 -7 0 -9 3 -9 10 2 5
8 10 10 10 4 0 -6 11 -10 25 -9 14 2 25 -1 25 -6 0 -10 42 -30 49 -23 2 2 0 9
-5 17 -5 7 -2 5 8 -5 16 -18 26 -17 73 2 33 14 77 23 132 26 52 3 127 30 119
43 -3 4 8 6 23 5 29 -2 54 18 59 49 2 12 -4 17 -18 17 -14 0 -19 -4 -15 -12 4
-7 -1 -4 -9 6 -11 14 -16 15 -16 6 0 -9 -5 -8 -16 6 -8 10 -13 12 -9 4 4 -9 1
-8 -8 3 -11 14 -16 15 -20 5 -4 -10 -6 -9 -6 2 -1 17 -48 24 -146 23 -87 -1
-105 -5 -105 -23 -1 -12 -3 -12 -11 3 -12 20 -29 23 -29 4 0 -7 -9 -13 -20
-14 -11 -1 -20 3 -20 9 0 6 -7 5 -17 -3 -9 -8 -14 -9 -10 -2 5 7 -4 11 -26 12
-53 1 -155 19 -181 33 -14 8 -17 7 -10 -4 6 -11 5 -11 -8 0 -13 10 -29 11 -67
4 -29 -5 -53 -6 -56 -3 -2 4 -24 8 -49 10 -55 2 -85 8 -100 18 -20 15 -63 7
-115 -20 -52 -28 -93 -32 -221 -22 -176 14 -227 23 -265 43 l-39 22 -13 -23
c-7 -12 -12 -19 -13 -14 0 4 -14 0 -31 -8 -16 -9 -51 -17 -77 -19 -26 -1 -56
-7 -66 -13 -20 -11 -80 0 -104 19 -7 6 -22 12 -35 14 -79 10 -97 13 -116 23
-12 7 -21 9 -21 6 0 -3 -10 0 -22 6 -37 20 -58 18 -146 -11z"/>
<path d="M9480 785 c0 -33 2 -35 20 -25 16 9 18 15 10 30 -18 34 -30 32 -30
-5z"/>
<path d="M9670 802 c0 -10 -4 -22 -9 -27 -5 -6 -12 -21 -16 -34 -7 -22 -5 -24
23 -18 29 6 30 5 27 -23 -2 -17 1 -30 9 -33 9 -4 12 2 8 18 -4 21 -1 23 31 20
43 -4 62 22 19 27 -22 2 -27 8 -27 31 0 20 -8 33 -25 42 -33 19 -40 18 -40 -3z"/>
<path d="M8754 778 c-4 -7 -4 -10 1 -6 4 4 17 2 29 -4 19 -10 20 -10 7 5 -16
20 -27 21 -37 5z"/>
<path d="M9580 755 c7 -8 17 -15 22 -15 6 0 5 7 -2 15 -7 8 -17 15 -22 15 -6
0 -5 -7 2 -15z"/>
<path d="M9110 750 c0 -6 12 -15 26 -20 33 -13 34 -13 34 5 0 8 -6 12 -14 9
-8 -3 -17 -1 -21 5 -8 14 -25 14 -25 1z"/>
<path d="M9890 745 c-17 -21 -8 -27 24 -19 21 5 24 9 15 20 -15 18 -24 18 -39
-1z"/>
<path d="M9334 705 c-10 -8 -14 -15 -8 -15 5 0 19 7 30 15 10 8 14 15 8 15 -5
0 -19 -7 -30 -15z"/>
<path d="M9560 701 c0 -6 4 -13 10 -16 6 -3 7 1 4 9 -7 18 -14 21 -14 7z"/>
</g>
</svg>
