<?xml version="1.0" standalone="no"?>
<!DOCTYPE svg PUBLIC "-//W3C//DTD SVG 20010904//EN"
 "http://www.w3.org/TR/2001/REC-SVG-20010904/DTD/svg10.dtd">
<svg version="1.0" xmlns="http://www.w3.org/2000/svg"
 width="505.000000pt" height="637.000000pt" viewBox="0 0 505.000000 637.000000"
 preserveAspectRatio="xMidYMid meet">

<g transform="translate(0.000000,637.000000) scale(0.100000,-0.100000)"
fill="#8FC996" stroke="none">
<path d="M2644 5588 c-63 -9 -203 -58 -314 -109 -83 -39 -90 -45 -365 -322
-397 -400 -628 -665 -676 -775 -11 -24 -45 -72 -77 -105 -82 -88 -102 -116
-102 -147 0 -37 45 -74 113 -96 140 -44 634 -21 885 42 54 14 66 14 74 3 19
-28 1 -296 -33 -489 -26 -150 -32 -210 -31 -313 2 -202 22 -281 97 -385 40
-57 36 -37 69 -327 9 -71 24 -200 35 -285 11 -85 27 -260 35 -387 9 -128 20
-242 27 -254 12 -23 11 -23 149 1 131 24 332 -10 398 -65 30 -25 52 -32 52
-16 0 16 -149 150 -172 155 -13 3 -58 10 -101 15 -116 16 -113 12 -120 137
-10 159 -8 622 3 756 9 112 12 121 65 231 30 64 66 128 79 144 35 42 120 175
135 212 13 29 11 39 -28 136 -57 142 -81 241 -88 361 -7 122 8 210 48 285 58
110 81 166 97 238 l16 73 -28 82 c-35 103 -81 167 -157 216 -93 60 -144 73
-263 68 -123 -6 -248 -45 -455 -142 -123 -58 -209 -96 -216 -96 -2 0 19 37 46
82 27 46 63 121 80 168 39 107 55 134 126 202 55 51 62 55 121 61 125 13 199
70 227 175 48 177 68 214 130 231 45 12 137 74 176 118 34 39 63 99 54 112 -8
13 -55 17 -111 9z"/>
<path d="M3420 5217 c-117 -51 -496 -247 -615 -318 -99 -59 -207 -142 -195
-151 3 -1 32 -16 65 -33 85 -42 231 -189 273 -275 18 -36 35 -89 39 -118 3
-28 9 -52 13 -52 27 0 114 88 285 290 115 135 205 230 219 230 6 0 18 -13 28
-29 21 -38 103 -102 233 -181 219 -134 254 -159 284 -200 45 -62 49 -100 17
-161 -48 -94 -29 -147 73 -199 l58 -29 23 -82 c13 -45 44 -120 69 -166 36 -68
48 -83 65 -81 34 5 46 45 46 153 0 205 -55 436 -150 630 -98 199 -257 402
-444 564 -59 52 -130 121 -158 155 -28 34 -58 66 -67 73 -27 21 -83 14 -161
-20z"/>
<path d="M3033 3209 c-50 -19 -57 -27 -141 -152 -86 -126 -144 -228 -156 -272
-8 -27 43 -89 94 -115 43 -22 140 -40 216 -40 36 0 59 6 77 20 14 11 36 20 50
20 30 0 124 48 177 90 107 85 103 265 -10 394 -66 75 -195 98 -307 55z"/>
</g>
</svg>
