<?xml version="1.0" standalone="no"?>
<!DOCTYPE svg PUBLIC "-//W3C//DTD SVG 20010904//EN"
 "http://www.w3.org/TR/2001/REC-SVG-20010904/DTD/svg10.dtd">
<svg version="1.0" xmlns="http://www.w3.org/2000/svg"
 width="300.000000pt" height="167.000000pt" viewBox="0 0 300.000000 167.000000"
 preserveAspectRatio="xMidYMid meet">
<metadata>
Created by potrace 1.10, written by Peter Selinger 2001-2011
</metadata>
<g transform="translate(0.000000,167.000000) scale(0.100000,-0.100000)"
fill="#8FC996" stroke="none">
<path d="M1713 1641 c37 -39 23 -97 -33 -144 -25 -21 -42 -27 -80 -27 -52 0
-60 8 -60 62 0 30 31 67 91 110 l24 17 -28 -2 c-52 -3 -108 -72 -112 -139 -3
-52 28 -80 84 -77 88 6 161 79 157 158 -3 47 -10 57 -42 64 l-25 4 24 -26z"/>
<path d="M565 1168 c-176 -265 -333 -498 -350 -517 -45 -52 -112 -91 -157 -91
-32 0 -40 -4 -48 -26 -6 -14 -10 -27 -10 -30 0 -2 89 -4 198 -4 l199 0 11 25
c16 36 17 35 -33 35 -46 0 -85 24 -85 53 0 13 39 81 100 175 l35 52 173 0 173
0 -6 -87 c-13 -166 -30 -193 -121 -193 -51 0 -63 -10 -64 -52 0 -5 103 -8 230
-8 216 0 230 1 240 19 18 34 12 41 -38 41 -60 0 -86 24 -86 78 -1 41 12 276
19 362 3 30 7 89 10 130 3 41 8 100 10 130 3 30 7 107 10 170 3 63 8 139 11
168 l6 52 -53 0 -54 0 -320 -482z m383 443 c10 -6 12 -26 8 -77 -3 -38 -8
-118 -11 -179 -3 -60 -10 -157 -15 -215 -5 -58 -12 -154 -15 -215 -4 -60 -9
-121 -11 -135 -2 -14 -4 -61 -5 -106 -1 -85 10 -119 43 -130 44 -14 8 -21
-107 -23 -80 -1 -125 2 -125 9 0 5 6 10 14 10 37 0 67 100 67 220 0 56 -4 77
-15 86 -9 6 -16 15 -16 19 0 5 3 5 7 2 15 -16 34 39 39 115 3 46 9 133 15 193
18 221 10 286 -34 247 -19 -17 -20 -16 -7 8 7 14 33 55 57 93 55 82 79 99 111
78z m-132 -190 c-7 -11 -14 -80 -23 -236 -3 -71 -8 -133 -9 -137 -1 -5 -2 -39
-3 -78 l-1 -70 -156 0 c-86 0 -154 4 -152 8 10 26 334 521 341 521 5 1 6 -3 3
-8z m-68 -41 c-7 -10 -14 -17 -17 -15 -4 4 18 35 25 35 2 0 -1 -9 -8 -20z
m-38 -59 c-5 -11 -15 -23 -22 -27 -7 -5 -8 -2 -3 7 21 37 44 55 25 20z m-62
-91 c-7 -10 -14 -18 -15 -16 -6 6 9 36 18 36 5 0 4 -9 -3 -20z m-67 -102 c-11
-18 -45 -71 -75 -118 -31 -47 -56 -90 -56 -97 0 -6 10 -19 22 -27 22 -16 22
-16 -8 -16 -38 0 -74 -27 -99 -74 -11 -20 -23 -36 -27 -36 -5 0 -8 -4 -8 -10
0 -5 -13 -31 -30 -57 -37 -57 -38 -96 -6 -128 14 -14 21 -27 16 -30 -5 -3 -58
-5 -117 -4 -99 2 -105 3 -77 15 72 30 143 113 310 365 91 137 168 249 171 249
2 0 -4 -15 -16 -32z"/>
<path d="M2061 1534 c-1 -59 -3 -109 -5 -113 -2 -3 -7 -46 -11 -96 -4 -49 -8
-92 -10 -95 -1 -3 -6 -48 -9 -100 -17 -230 -45 -429 -68 -477 -28 -59 -82 -93
-140 -88 -31 2 -38 -1 -34 -12 4 -8 6 -23 6 -34 0 -18 10 -19 250 -19 l250 0
-6 28 c-4 15 -8 29 -10 30 -1 2 -29 5 -62 6 -107 4 -150 53 -150 171 0 40 2
83 5 96 l4 24 179 0 178 0 56 -101 c98 -176 98 -194 0 -191 -45 2 -53 0 -48
-13 3 -8 9 -23 11 -33 5 -16 26 -17 260 -17 203 0 253 3 245 13 -5 6 -11 20
-13 30 -3 15 -15 19 -56 22 -92 6 -100 16 -258 285 -107 184 -156 267 -251
430 -28 47 -86 147 -130 222 l-79 138 -51 0 -51 0 -2 -106z m115 29 c15 -27
33 -55 39 -63 7 -8 29 -46 50 -85 21 -38 46 -82 56 -97 11 -14 19 -29 19 -33
0 -3 14 -26 30 -50 17 -24 34 -52 38 -63 4 -10 39 -72 78 -138 40 -65 107
-179 150 -252 89 -152 130 -204 183 -232 l36 -19 -157 -1 c-87 0 -158 3 -158
8 0 4 9 13 20 20 35 22 25 67 -42 189 -43 78 -71 117 -89 125 -19 8 -24 17
-21 34 3 16 -21 65 -73 156 -43 73 -99 170 -125 216 -27 46 -58 94 -71 108
-21 22 -24 23 -41 7 -17 -15 -18 -14 -18 18 0 19 3 71 7 117 6 82 6 82 34 82
23 0 33 -9 55 -47z m55 -374 c62 -107 121 -210 132 -229 10 -19 23 -39 27 -45
6 -7 -48 -10 -156 -10 -90 0 -164 0 -164 1 0 1 6 68 14 150 8 82 18 191 21
242 4 51 9 91 11 90 2 -2 54 -92 115 -199z m-154 69 c-2 -13 -4 -3 -4 22 0 25
2 35 4 23 2 -13 2 -33 0 -45z m-22 -266 c-10 -83 -17 -54 -8 34 4 44 9 66 11
49 2 -16 1 -54 -3 -83z m-1 -127 c-7 -11 -16 -57 -20 -102 -6 -72 -4 -86 17
-128 24 -47 65 -85 92 -85 9 0 18 -4 22 -10 3 -6 -53 -9 -150 -9 -85 0 -155 2
-155 5 0 2 18 11 40 20 70 28 111 123 126 295 6 76 7 78 24 56 15 -18 16 -24
4 -42z"/>
<path d="M300 1366 c0 -2 8 -10 18 -17 15 -13 16 -12 3 4 -13 16 -21 21 -21
13z"/>
<path d="M1270 1244 c-17 -44 -14 -47 48 -42 52 4 60 1 75 -19 16 -20 16 -26
3 -58 -8 -19 -12 -35 -8 -35 4 0 3 -4 -3 -8 -11 -8 -35 -67 -40 -98 -2 -11
-13 -41 -25 -65 -13 -24 -22 -46 -22 -49 2 -10 -27 -98 -42 -129 -9 -17 -14
-31 -10 -31 4 0 0 -7 -7 -17 -8 -9 -13 -18 -11 -20 2 -2 1 -17 -3 -34 -14 -64
41 -137 110 -145 6 0 18 -4 28 -9 9 -4 32 -5 50 -1 17 3 44 8 59 10 68 12 157
67 238 146 83 81 83 82 59 94 -22 12 -28 9 -81 -45 -66 -68 -138 -115 -190
-124 -32 -6 -41 -4 -59 17 -22 25 -32 88 -15 88 5 0 7 3 3 6 -3 4 0 21 8 39 7
19 11 36 7 39 -3 3 1 6 8 6 7 0 11 3 7 6 -3 4 1 20 9 36 9 17 18 42 20 56 3
13 11 37 19 52 8 15 11 30 8 34 -4 3 0 6 7 6 7 0 11 3 7 6 -3 4 1 20 9 36 8
16 12 34 8 40 -5 7 -3 8 6 3 8 -5 11 -3 8 6 -3 8 3 30 13 50 10 20 15 39 12
43 -4 3 -1 6 6 6 7 0 10 4 7 8 -3 5 2 21 10 37 8 15 16 41 19 56 l5 29 -175 0
-175 0 -10 -26z m328 -9 c1 -1 -3 -15 -9 -31 -15 -40 -78 -211 -94 -259 -8
-22 -30 -85 -50 -140 -51 -140 -58 -180 -40 -216 18 -34 49 -44 118 -36 65 8
44 -6 -42 -29 -134 -34 -231 6 -231 96 0 33 44 183 60 205 4 6 22 54 39 108
18 53 37 97 42 97 6 0 7 4 4 10 -3 5 1 23 10 40 8 16 13 30 11 30 -3 0 -1 14
4 30 7 25 4 35 -17 60 -20 24 -33 30 -64 30 -21 0 -39 4 -39 10 0 9 289 4 298
-5z"/>
<path d="M1063 396 c3 -7 0 -19 -6 -25 -8 -8 -8 -11 1 -11 14 0 34 35 25 44
-12 11 -25 6 -20 -8z"/>
<path d="M2856 395 c-3 -8 -2 -15 3 -15 5 0 14 7 21 15 10 12 10 15 -3 15 -8
0 -17 -7 -21 -15z"/>
<path d="M410 353 c0 -7 7 -13 15 -13 11 0 15 -11 15 -40 0 -22 5 -40 10 -40
6 0 10 18 10 40 0 29 4 40 15 40 33 0 12 18 -25 22 -28 2 -40 0 -40 -9z"/>
<path d="M598 364 c-5 -4 -8 -29 -8 -56 0 -46 1 -48 29 -48 17 0 33 4 36 10 3
6 -5 10 -19 10 -23 0 -25 4 -28 46 -2 25 -6 42 -10 38z"/>
<path d="M748 363 c-24 -4 -26 -8 -26 -54 -1 -47 0 -49 28 -49 16 0 32 5 35
10 4 6 -5 10 -20 10 -17 0 -25 5 -22 13 2 6 11 11 21 9 9 -2 16 2 16 8 0 5 -9
10 -20 10 -11 0 -20 5 -20 10 0 6 9 10 20 10 11 0 20 7 20 15 0 8 -1 14 -2 14
-2 -1 -15 -4 -30 -6z"/>
<path d="M1106 363 c-3 -3 -6 -28 -6 -55 0 -36 4 -48 15 -48 11 0 15 12 15 49
0 47 -9 68 -24 54z"/>
<path d="M1230 328 l0 -43 -25 38 c-14 20 -30 37 -35 37 -6 0 -10 -22 -10 -50
0 -31 4 -50 11 -50 8 0 10 13 6 38 l-6 37 30 -37 c17 -21 35 -38 40 -38 12 0
11 97 -1 105 -6 4 -10 -11 -10 -37z"/>
<path d="M1458 364 c-5 -4 -8 -29 -8 -56 0 -47 1 -48 30 -48 17 0 30 5 30 10
0 6 -9 10 -19 10 -16 0 -20 8 -23 46 -2 25 -6 42 -10 38z"/>
<path d="M1530 316 c0 -56 0 -56 30 -56 17 0 30 5 30 10 0 6 -9 10 -20 10 -17
0 -20 7 -20 39 0 22 -4 43 -10 46 -6 4 -10 -15 -10 -49z"/>
<path d="M1610 316 c0 -31 5 -56 10 -56 6 0 10 22 10 49 0 28 -4 53 -10 56 -6
4 -10 -15 -10 -49z"/>
<path d="M1677 350 c-15 -12 -27 -29 -27 -39 0 -24 31 -51 58 -51 18 0 22 6
22 31 0 19 -4 28 -11 24 -6 -4 -8 -13 -5 -21 3 -9 -1 -14 -14 -14 -26 0 -37
40 -15 56 9 7 24 10 32 7 10 -4 14 -2 11 7 -7 22 -23 22 -51 0z"/>
<path d="M1998 359 c-32 -18 -41 -48 -23 -75 17 -26 55 -30 63 -6 2 7 -2 10
-12 6 -16 -6 -46 11 -46 27 0 16 31 38 47 32 10 -4 14 -2 11 7 -6 18 -19 21
-40 9z"/>
<path d="M2478 364 c-5 -4 -8 -29 -8 -56 0 -47 1 -48 30 -48 17 0 30 5 30 10
0 6 -9 10 -19 10 -16 0 -20 8 -23 46 -2 25 -6 42 -10 38z"/>
<path d="M2623 355 c-28 -20 -35 -51 -15 -73 19 -21 90 -47 100 -38 3 4 -4 9
-15 12 -20 6 -21 8 -7 29 17 26 6 68 -21 79 -21 8 -17 8 -42 -9z m46 -27 c6
-16 5 -27 -4 -37 -27 -28 -70 14 -45 44 18 22 39 18 49 -7z"/>
<path d="M2788 360 c-4 -8 -8 -28 -10 -45 -4 -45 -32 -39 -36 8 -4 49 -22 48
-22 -1 0 -41 14 -62 41 -62 27 0 40 26 37 72 -2 25 -6 37 -10 28z"/>
<path d="M329 314 c-21 -46 -18 -73 4 -43 12 16 37 14 49 -5 4 -6 10 -7 14 -3
9 9 -25 97 -37 97 -6 0 -19 -21 -30 -46z m41 -6 c0 -5 -6 -8 -14 -8 -9 0 -12
7 -9 21 4 16 8 17 14 7 5 -7 9 -16 9 -20z"/>
<path d="M510 310 c0 -49 1 -50 30 -50 17 0 30 5 30 10 0 6 -9 10 -20 10 -11
0 -20 7 -20 15 0 8 6 12 14 9 8 -3 17 -1 21 5 3 7 -2 11 -14 11 -12 0 -21 5
-21 10 0 6 9 10 20 10 11 0 20 5 20 10 0 6 -13 10 -30 10 -29 0 -30 -1 -30
-50z"/>
<path d="M670 310 c0 -35 4 -50 12 -48 6 2 11 24 11 48 0 24 -5 46 -11 48 -8
2 -12 -13 -12 -48z"/>
<path d="M810 310 c0 -27 5 -50 10 -50 6 0 10 10 10 23 l0 22 20 -25 c10 -14
22 -22 26 -18 4 4 1 14 -6 23 -10 12 -10 18 0 30 19 23 4 45 -30 45 -29 0 -30
-1 -30 -50z m50 20 c0 -5 -7 -10 -15 -10 -8 0 -15 5 -15 10 0 6 7 10 15 10 8
0 15 -4 15 -10z"/>
<path d="M950 310 c0 -47 2 -50 25 -50 25 0 65 31 65 51 0 29 -22 49 -55 49
l-35 0 0 -50z m64 14 c7 -19 -10 -44 -30 -44 -9 0 -14 11 -14 30 0 23 5 30 19
30 10 0 22 -7 25 -16z"/>
<path d="M1265 350 c3 -5 13 -10 21 -10 10 0 14 -12 14 -40 0 -22 5 -40 10
-40 6 0 10 18 10 40 0 29 4 40 15 40 8 0 15 5 15 10 0 6 -21 10 -46 10 -27 0
-43 -4 -39 -10z"/>
<path d="M1360 310 c0 -49 1 -50 29 -50 17 0 33 5 36 10 4 6 -5 10 -20 10 -17
0 -25 5 -22 13 2 6 11 11 21 9 9 -2 16 2 16 8 0 5 -9 10 -20 10 -11 0 -20 5
-20 10 0 6 9 10 20 10 11 0 20 5 20 10 0 6 -13 10 -30 10 -29 0 -30 -1 -30
-50z"/>
<path d="M1760 310 l0 -50 35 0 c19 0 35 5 35 10 0 6 -11 10 -25 10 -16 0 -25
6 -25 16 0 11 6 14 20 9 11 -4 20 -2 20 4 0 6 -9 11 -20 11 -11 0 -20 5 -20
10 0 6 9 10 19 10 11 0 23 5 26 10 4 6 -8 10 -29 10 l-36 0 0 -50z"/>
<path d="M1850 310 c0 -27 5 -50 10 -50 6 0 10 17 10 37 l0 38 25 -38 c14 -20
30 -37 35 -37 6 0 10 23 10 50 0 55 -17 69 -22 18 l-3 -33 -20 33 c-29 48 -45
41 -45 -18z"/>
<path d="M2060 310 l0 -50 35 0 c19 0 35 5 35 10 0 6 -11 10 -25 10 -16 0 -25
6 -25 16 0 11 6 14 20 9 11 -4 20 -2 20 4 0 6 -9 11 -20 11 -11 0 -20 5 -20
10 0 6 9 10 20 10 11 0 20 5 20 10 0 6 -13 10 -30 10 -29 0 -30 -1 -30 -50z"/>
<path d="M2209 333 c-6 -16 -15 -36 -21 -46 -11 -23 -2 -35 14 -19 16 16 45
15 51 0 2 -7 8 -10 12 -6 10 9 -23 98 -36 98 -5 0 -14 -12 -20 -27z m31 -24
c0 -5 -4 -9 -10 -9 -5 0 -10 7 -10 16 0 8 5 12 10 9 6 -3 10 -10 10 -16z"/>
<path d="M2290 310 c0 -27 5 -50 10 -50 6 0 10 9 10 20 0 13 7 20 19 20 10 0
21 7 25 15 10 26 -5 45 -35 45 -28 0 -29 -2 -29 -50z m48 18 c-6 -18 -28 -21
-28 -4 0 9 7 16 16 16 9 0 14 -5 12 -12z"/>
<path d="M2380 310 c0 -27 5 -50 10 -50 6 0 10 9 10 20 0 13 7 20 19 20 25 0
34 14 26 40 -4 14 -15 20 -36 20 -28 0 -29 -1 -29 -50z m48 18 c-6 -18 -28
-21 -28 -4 0 9 7 16 16 16 9 0 14 -5 12 -12z"/>
<path d="M2550 310 c0 -27 5 -50 10 -50 6 0 10 23 10 50 0 28 -4 50 -10 50 -5
0 -10 -22 -10 -50z"/>
<path d="M2830 310 c0 -49 1 -50 30 -50 17 0 30 5 30 10 0 6 -9 10 -21 10 -12
0 -19 5 -16 13 2 6 11 11 21 9 9 -2 16 2 16 8 0 5 -9 10 -20 10 -11 0 -20 5
-20 10 0 6 9 10 20 10 11 0 20 5 20 10 0 6 -13 10 -30 10 -29 0 -30 -1 -30
-50z"/>
<path d="M2920 310 c0 -49 1 -50 30 -50 17 0 30 5 30 10 0 6 -9 10 -20 10 -11
0 -20 6 -20 14 0 9 7 12 20 9 11 -3 20 0 20 6 0 6 -9 11 -20 11 -11 0 -20 5
-20 10 0 6 9 10 20 10 11 0 20 5 20 10 0 6 -13 10 -30 10 -29 0 -30 -1 -30
-50z"/>
<path d="M1344 133 c-3 -10 -12 -33 -20 -50 -12 -29 -12 -33 1 -33 8 0 15 5
15 10 0 6 9 10 20 10 11 0 20 -4 20 -10 0 -5 7 -10 15 -10 13 0 13 4 1 33 -8
17 -17 40 -20 50 -3 9 -10 17 -16 17 -6 0 -13 -8 -16 -17z m18 -45 c-9 -9 -12
-7 -12 12 0 19 3 21 12 12 9 -9 9 -15 0 -24z"/>
<path d="M1420 100 c0 -37 4 -50 15 -50 8 0 12 6 9 14 -3 8 3 16 15 19 45 12
33 67 -15 67 -22 0 -24 -4 -24 -50z m50 15 c0 -8 -7 -15 -15 -15 -8 0 -15 7
-15 15 0 8 7 15 15 15 8 0 15 -7 15 -15z"/>
<path d="M1510 100 c0 -27 5 -50 10 -50 6 0 10 6 10 14 0 7 9 16 20 19 45 12
31 67 -16 67 -22 0 -24 -4 -24 -50z m48 12 c2 -7 -3 -12 -12 -12 -9 0 -16 7
-16 16 0 17 22 14 28 -4z"/>
<path d="M1600 101 c0 -50 1 -51 30 -51 17 0 30 5 30 10 0 6 -9 10 -21 10 -18
0 -20 5 -17 37 2 22 -2 38 -10 41 -8 2 -12 -11 -12 -47z"/>
<path d="M1680 100 c0 -27 5 -50 10 -50 6 0 10 23 10 50 0 28 -4 50 -10 50 -5
0 -10 -22 -10 -50z"/>
<path d="M1730 100 c0 -49 1 -50 30 -50 17 0 30 5 30 10 0 6 -9 10 -20 10 -11
0 -20 5 -20 10 0 6 9 10 20 10 11 0 20 5 20 10 0 6 -9 10 -20 10 -11 0 -20 5
-20 10 0 6 9 10 20 10 11 0 20 5 20 10 0 6 -13 10 -30 10 -29 0 -30 -1 -30
-50z"/>
<path d="M1820 100 c0 -48 1 -50 28 -50 34 0 52 16 52 46 0 30 -25 54 -56 54
-22 0 -24 -4 -24 -50z m55 0 c0 -16 -6 -26 -17 -28 -14 -3 -18 3 -18 28 0 25
4 31 18 28 11 -2 17 -12 17 -28z"/>
<path d="M1970 100 c0 -27 5 -50 10 -50 6 0 10 23 10 50 0 28 -4 50 -10 50 -5
0 -10 -22 -10 -50z"/>
<path d="M2020 100 c0 -34 4 -50 13 -50 9 0 12 11 9 38 l-4 37 26 -37 c15 -21
31 -38 36 -38 6 0 10 23 10 50 0 31 -4 50 -11 50 -8 0 -10 -13 -6 -37 l6 -38
-24 30 c-14 17 -25 33 -25 38 0 4 -7 7 -15 7 -11 0 -15 -12 -15 -50z"/>
<path d="M2130 140 c0 -5 7 -10 15 -10 11 0 15 -11 15 -40 0 -22 5 -40 10 -40
6 0 10 18 10 40 0 29 4 40 15 40 8 0 15 5 15 10 0 6 -18 10 -40 10 -22 0 -40
-4 -40 -10z"/>
<path d="M2230 100 c0 -49 1 -50 30 -50 17 0 30 5 30 10 0 6 -9 10 -20 10 -11
0 -20 5 -20 10 0 6 9 10 20 10 11 0 20 5 20 10 0 6 -9 10 -20 10 -11 0 -20 5
-20 10 0 6 9 10 20 10 11 0 20 5 20 10 0 6 -13 10 -30 10 -29 0 -30 -1 -30
-50z"/>
<path d="M2320 100 c0 -49 1 -50 30 -50 17 0 30 5 30 10 0 6 -9 10 -20 10 -17
0 -20 7 -20 40 0 22 -4 40 -10 40 -5 0 -10 -22 -10 -50z"/>
<path d="M2390 101 c0 -50 1 -51 30 -51 17 0 30 5 30 10 0 6 -9 10 -21 10 -18
0 -20 5 -17 37 2 22 -2 38 -10 41 -8 2 -12 -11 -12 -47z"/>
<path d="M2470 100 c0 -27 5 -50 10 -50 6 0 10 23 10 50 0 28 -4 50 -10 50 -5
0 -10 -22 -10 -50z"/>
<path d="M2536 135 c-19 -19 -21 -56 -4 -73 7 -7 25 -12 40 -12 23 0 28 4 28
25 0 15 -6 25 -15 25 -8 0 -12 -6 -9 -14 3 -8 1 -16 -3 -19 -16 -10 -35 10
-31 34 2 19 9 24 31 24 15 -1 26 4 24 10 -6 17 -43 17 -61 0z"/>
<path d="M2630 100 c0 -49 1 -50 30 -50 17 0 30 5 30 10 0 6 -9 10 -20 10 -11
0 -20 5 -20 10 0 6 9 10 20 10 11 0 20 5 20 10 0 6 -9 10 -20 10 -11 0 -20 5
-20 10 0 6 9 10 20 10 11 0 20 5 20 10 0 6 -13 10 -30 10 -29 0 -30 -1 -30
-50z"/>
<path d="M2720 100 c0 -31 4 -50 11 -50 8 0 10 12 6 35 -3 19 -4 35 -2 35 2 0
13 -16 25 -35 12 -19 27 -35 34 -35 16 0 12 93 -4 98 -10 4 -11 -5 -7 -34 l7
-39 -25 30 c-13 17 -24 33 -25 38 0 4 -4 7 -10 7 -5 0 -10 -22 -10 -50z"/>
<path d="M2846 134 c-19 -18 -21 -55 -4 -72 15 -15 58 -16 58 -2 0 6 -7 10
-16 8 -21 -4 -39 24 -30 47 4 11 13 15 26 12 13 -3 20 0 20 9 0 19 -35 18 -54
-2z"/>
<path d="M2930 100 c0 -49 1 -50 30 -50 17 0 30 5 30 10 0 6 -9 10 -20 10 -11
0 -20 5 -20 10 0 6 9 10 20 10 11 0 20 5 20 10 0 6 -9 10 -20 10 -11 0 -20 5
-20 10 0 6 9 10 20 10 11 0 20 5 20 10 0 6 -13 10 -30 10 -29 0 -30 -1 -30
-50z"/>
</g>
</svg>
